<svg xmlns="http://www.w3.org/2000/svg" viewBox="0 0 691.33 1539.6"><defs><style>.cls-1{fill:#edcfc7;}.cls-2{fill:#ff8c62;}.cls-3{fill:#37202c;}.cls-4{fill:#6a4d5d;}.cls-5{fill:#ff404c;}.cls-6{fill:#c5023a;}.cls-7{fill:#fff;}.cls-8{fill:#ff6a4c;}.cls-9{fill:#6040ff;}.cls-10{fill:#3832b5;}.cls-11{fill:#8878ff;}</style></defs><g id="Layer_2" data-name="Layer 2"><g id="Layer_1-2" data-name="Layer 1"><ellipse class="cls-1" cx="355.17" cy="1506.75" rx="336.16" ry="32.84"/><polygon class="cls-2" points="574.25 1374.73 578.78 1430.09 513.24 1431.16 509.63 1379.23 574.25 1374.73"/><path class="cls-3" d="M310.82,809.78l3.93,8.16L442.5,1083.35c0,109.66,64.25,307.47,64.25,307.47l77-2.83-21.12-309.3-.29-4.25c-.13-.38-.25-.76-.38-1.15-19.75-60.93-60.83-213.12-88.79-286.52-.79-2.07-1.54-4.07-2.28-6-4.45-11.68-7.88-20.65-9.93-26l-2.16-5.62L437.2,758,431,760.53Z"/><path class="cls-4" d="M521.77,1074.93a102.84,102.84,0,0,0,30.06,4.2c3.8,0,7.43-.18,10.79-.44l-.29-4.25c-.13-.38-.25-.76-.38-1.15-3.2.26-6.66.42-10.28.42a93.63,93.63,0,0,1-27.33-3.77,3.88,3.88,0,0,0-4.52,1.5C519.11,1072.82,520,1074.38,521.77,1074.93Z"/><path class="cls-5" d="M498.39,1494.21q0,.66,0,1.29c0,2,.14,3.72.24,5.23.23,3.32.51,5.37.51,5.37H626.41a52.4,52.4,0,0,0,.14-10.6c-.83-11.28-5.15-29.08-22.72-40.85-24.06-16.13-14.77-12.76-19.7-20.11-.56-.82-4.89-13.31-5.35-14.17-4.13-7.63-7.94-11.24-30.74-11.24-30.24,0-32.9,12.72-36.13,19.42-1.33,2.78-3.15,8.62-5,15.57-.76,2.79-1.52,5.77-2.27,8.8-1.86,7.6-3.61,15.54-4.79,21.88A100,100,0,0,0,498.39,1494.21Z"/><path class="cls-6" d="M498.39,1494.21q0,.66,0,1.29c0,2,.14,3.72.24,5.23a31.88,31.88,0,0,0,13.22-14.86c7.87-18.59-4.24-40.91-4.74-41.85l-.26.1c-.76,2.79-1.52,5.77-2.27,8.8,2.86,7.59,6.17,20.36,1.58,31.16A25.75,25.75,0,0,1,498.39,1494.21Z"/><path class="cls-6" d="M498.42,1495.5c.17,6.28.75,10.6.75,10.6H626.41a52.4,52.4,0,0,0,.14-10.6Z"/><path class="cls-7" d="M557.89,1422.84a2.84,2.84,0,0,0,.44,1,3.35,3.35,0,0,0,.67.69,4,4,0,0,0,2.43.79,3.85,3.85,0,0,0,1.48-.28l1.19-.47c1.69-.69,4.62-1.93,8.1-3.62,1.67-.8,3.47-1.72,5.3-2.72.1,0,.19-.1.29-.15,8.52-4.66,17.7-11.08,18.91-17.67.45-2.39.11-5.92-4-9.2a11.8,11.8,0,0,0-9-2.73,11.32,11.32,0,0,0-1.26.23,14.18,14.18,0,0,0-4.24,1.79,20.1,20.1,0,0,0-2.43,1.73c-5.25,4.28-9.68,11.51-12.83,17.77-1,2.07-1.93,4-2.68,5.74-.16.36-.3.71-.46,1-.51,1.23-.94,2.31-1.26,3.15l-.13.3c-.14.39-.27.72-.36,1A2.66,2.66,0,0,0,557.89,1422.84Zm10.07-7.09c.64-1.34,1.3-2.71,2-4a74,74,0,0,1,6.45-10.43c2.66-3.48,5.35-6,7.79-6.54a4.27,4.27,0,0,1,.83-.11,4.41,4.41,0,0,1,2.72,1.16c1.9,1.51,2,2.7,1.79,3.57-.64,3.47-5.91,7.68-12.35,11.49-1.39.83-2.82,1.63-4.27,2.39C571.27,1414.12,569.6,1415,568,1415.75Z"/><path class="cls-7" d="M520,1400.36c.73,3.92,4.29,7.79,8.83,11.26a91.84,91.84,0,0,0,14.43,8.67c3.49,1.75,6.58,3.09,8.56,3.9l.48.21,1.49.59a3.88,3.88,0,0,0,1.5.28,1.71,1.71,0,0,0,.39,0,3.8,3.8,0,0,0,2-.76,2.9,2.9,0,0,0,.67-.69,2.8,2.8,0,0,0,.48-1.09,2.77,2.77,0,0,0-.11-1.53c-.1-.27-.22-.6-.37-1a1.92,1.92,0,0,0-.11-.27c-.33-.89-.79-2-1.32-3.3h0c-.14-.35-.3-.71-.46-1.07-.83-1.89-1.83-4-3-6.33-3.17-6.17-7.54-13.11-12.67-17.22a16.48,16.48,0,0,0-6.45-3.33,11.78,11.78,0,0,0-10.33,2.5,12,12,0,0,0-1.7,1.6A8.62,8.62,0,0,0,520,1400.36Zm8.94-4.58a4.5,4.5,0,0,1,2.74-1.16,4.27,4.27,0,0,1,.83.11c4,.93,8.84,7.22,12.87,14.44,1.21,2.14,2.34,4.38,3.36,6.58a110.51,110.51,0,0,1-11.05-6c-5.58-3.51-9.93-7.24-10.52-10.38C527,1398.48,527,1397.29,528.89,1395.78Z"/><path class="cls-7" d="M558.44,1416.08s5.93-2.42,6.39,4.62c.37,5.71-4.32,6.94-6.23,6,0,0-4,1-6.05-1.75S551.87,1413.26,558.44,1416.08Z"/><path class="cls-7" d="M584.47,1435.33a4,4,0,0,0,2.17-.62,2.9,2.9,0,0,0,.74-4.41c-11.46-13.32-29.08-10.42-29.83-10.29a3.19,3.19,0,0,0-2.84,3.7,3.65,3.65,0,0,0,4.26,2.47c.6-.1,13.94-2.17,22.59,7.88A3.82,3.82,0,0,0,584.47,1435.33Z"/><path class="cls-7" d="M528.87,1438.5a3.7,3.7,0,0,0,3.31-1.84c5.88-11.21,26.41-13.93,26.61-14a3.25,3.25,0,0,0,3.07-3.56,3.58,3.58,0,0,0-4.12-2.66c-1,.12-24.67,3.27-32.17,17.57a3,3,0,0,0,1.81,4.17A4.06,4.06,0,0,0,528.87,1438.5Z"/><path class="cls-7" d="M543.84,1443.52a4,4,0,0,0,.91-.1,72.51,72.51,0,0,1,29.5-.53,3.72,3.72,0,0,0,4.47-2.19,3.12,3.12,0,0,0-2.53-3.87,80.11,80.11,0,0,0-33.26.5,3.13,3.13,0,0,0-2.6,3.83A3.59,3.59,0,0,0,543.84,1443.52Z"/><path class="cls-7" d="M549.28,1453.49a4,4,0,0,0,.91-.1,73.14,73.14,0,0,1,29.51-.53,3.73,3.73,0,0,0,4.46-2.2,3.11,3.11,0,0,0-2.53-3.86,80.05,80.05,0,0,0-33.25.5,3.14,3.14,0,0,0-2.61,3.83A3.59,3.59,0,0,0,549.28,1453.49Z"/><path class="cls-7" d="M555.68,1464.82a4.09,4.09,0,0,0,.91-.1,73.08,73.08,0,0,1,29.5-.53,3.71,3.71,0,0,0,4.46-2.2,3.11,3.11,0,0,0-2.53-3.86,80.05,80.05,0,0,0-33.25.5,3.12,3.12,0,0,0-2.6,3.83A3.57,3.57,0,0,0,555.68,1464.82Z"/><path class="cls-4" d="M514.79,1389.74a4,4,0,0,0,.69,0c1.89-.29,3.11-1.71,2.73-3.16-.34-1.29-33.77-129.44-42.93-168.85-9.13-39.24-13-142.22-13-143.25a2.08,2.08,0,0,0-.3-1c-21.7-37.46-121-247-122-249.12a3.84,3.84,0,0,0-4.46-1.6c-1.8.51-2.73,2-2.07,3.45,1,2.1,99.53,210.07,121.89,249,.31,8.12,4.21,105.37,13.08,143.52,9.18,39.47,42.63,167.67,43,169A3.38,3.38,0,0,0,514.79,1389.74Z"/><polygon class="cls-2" points="303.76 1374.73 302.61 1430.18 242.75 1431.16 242.41 1379 303.76 1374.73"/><path class="cls-5" d="M102.48,1507.88l213.6-2c1.56-2.51,2.38-6.07,2.68-10.31,1.14-15.68-4.92-40.63-7.94-56.37-.37-1.84-.68-3.55-.93-5.11a46.54,46.54,0,0,1-.71-6.43c-.16-12.86-13.27-10.54-13.27-10.54-21.39,18.58-46.2-8.75-60.38.42,0,0-6.11,3.88-22.91,17.27s-45.52,22.39-70,31.52c-31.56,11.78-40.41,23.34-42.07,31.27A13,13,0,0,0,102.48,1507.88Z"/><path class="cls-6" d="M102.48,1507.88l213.6-2c1.56-2.51,2.38-6.07,2.68-10.31l-218.17,2A13,13,0,0,0,102.48,1507.88Z"/><path class="cls-7" d="M232.43,1425.44s-3.91-8-12.36-5.39-7.44,14.77-7.44,14.77S217.85,1445.79,232.43,1425.44Z"/><path class="cls-7" d="M235.5,1461.83a3.29,3.29,0,0,0,3.48-3.08,37.37,37.37,0,0,0-14.19-28.64,3.88,3.88,0,0,0-4.95.4,2.78,2.78,0,0,0,.45,4.29,31.37,31.37,0,0,1,11.65,24A3.32,3.32,0,0,0,235.5,1461.83Z"/><path class="cls-7" d="M190.81,1438.26a3.81,3.81,0,0,0,2.33-.79c4.43-3.48,17.54-4.24,24.77-3.91a3.37,3.37,0,0,0,3.7-2.88,3.25,3.25,0,0,0-3.33-3.21c-2.21-.11-21.85-.83-29.87,5.48a2.78,2.78,0,0,0-.25,4.31A3.81,3.81,0,0,0,190.81,1438.26Z"/><path class="cls-7" d="M221.64,1427.74l1.81,1.55h-.19l0,.17v0l-1.38,6.3.79.11h0a59.37,59.37,0,0,0,6.77.26l1.4,0a150.58,150.58,0,0,0,15.6-1.27,41.51,41.51,0,0,0,13.67-4,23.91,23.91,0,0,0,3.08-1.85,14.1,14.1,0,0,0,5.1-6c.06-.19.14-.39.19-.58,1.07-3.33,0-6.69-2.88-9.3a16.19,16.19,0,0,0-11.09-4,1.37,1.37,0,0,0-.27,0,32.76,32.76,0,0,0-11.59,2.58c-.38.14-.75.29-1.13.46a79.52,79.52,0,0,0-14.28,8.18c-.36.26-.73.51-1.08.77-1.78,1.3-3.27,2.48-4.38,3.37s-1.66,1.4-2,1.66Zm7.66,1.78c-1,0-1.82,0-2.55,0,1.48-1.22,3.41-2.69,5.61-4.21v0a85.47,85.47,0,0,1,8.86-5.43c.48-.25,1-.49,1.45-.72a39.34,39.34,0,0,1,6.64-2.59,18.79,18.79,0,0,1,5-.79h.17a8,8,0,0,1,5.64,2,2.73,2.73,0,0,1,1.12,2.56,5.41,5.41,0,0,1-.18.58c-1.11,2.85-6.4,6.25-15.71,7.43-.89.11-1.75.23-2.58.32l-1.83.2C235.93,1429.32,232.11,1429.5,229.3,1429.52Z"/><path class="cls-7" d="M216,1432.91l3.19-6c-7.06-2.82-13.87-10.35-13.49-14.93.09-1.11.62-2.49,3.92-3.35,2.3-.59,3.44-.11,4.17.37,3.71,2.44,5,10.78,4.89,15.47l7.63.1c0-1.58.06-15.6-7.9-20.83-2.13-1.41-5.76-2.79-11-1.45-7.64,2-9.14,6.63-9.35,9.22C197.37,1419.64,207,1429.31,216,1432.91Z"/><path class="cls-6" d="M294.29,1506.1l6.34-.06a37.68,37.68,0,0,1-11.85-29.55c.81-18.31,13.32-30.77,22-37.28-.37-1.84-.68-3.55-.93-5.11-9.41,6.38-25.22,20.28-26.19,42.21A41.07,41.07,0,0,0,294.29,1506.1Z"/><path class="cls-7" d="M216.38,1445.71a3.43,3.43,0,0,0,3.38-2.35,3.06,3.06,0,0,0-2.61-3.67l-13.38-2.75a3.56,3.56,0,0,0-4.23,2.27,3.06,3.06,0,0,0,2.61,3.67l13.38,2.75A3.5,3.5,0,0,0,216.38,1445.71Z"/><path class="cls-7" d="M203.12,1452.56a3.43,3.43,0,0,0,3.38-2.35,3.06,3.06,0,0,0-2.61-3.67l-13.38-2.75a3.58,3.58,0,0,0-4.24,2.27,3.07,3.07,0,0,0,2.62,3.67l13.38,2.75A3.5,3.5,0,0,0,203.12,1452.56Z"/><path class="cls-7" d="M189.86,1459.15a3.44,3.44,0,0,0,3.38-2.35,3.06,3.06,0,0,0-2.61-3.67l-13.38-2.75a3.58,3.58,0,0,0-4.24,2.27,3.06,3.06,0,0,0,2.62,3.67l13.37,2.75A4.24,4.24,0,0,0,189.86,1459.15Z"/><path class="cls-7" d="M175.38,1465.27a3.47,3.47,0,0,0,3.39-2.35,3.08,3.08,0,0,0-2.62-3.68l-13.38-2.75a3.57,3.57,0,0,0-4.23,2.27,3.05,3.05,0,0,0,2.61,3.67l13.38,2.75A4.17,4.17,0,0,0,175.38,1465.27Z"/><path class="cls-7" d="M159.67,1470.51a3.44,3.44,0,0,0,3.38-2.35,3.06,3.06,0,0,0-2.61-3.67l-13.38-2.75a3.58,3.58,0,0,0-4.24,2.27,3.06,3.06,0,0,0,2.62,3.67l13.37,2.75A4.17,4.17,0,0,0,159.67,1470.51Z"/><path class="cls-3" d="M157.25,788.65c24.49,12.61,80.27,22.88,136.74,27.75C366.78,822.68,440.74,820,450.3,802a69.21,69.21,0,0,0,3-6.39,1.18,1.18,0,0,1,.07-.2q1-2.45,1.8-5c1-3.08,1.83-6.27,2.54-9.53.42-1.9.8-3.83,1.13-5.77,5.13-29.92.63-62.8.63-62.8l-276.2-44.72S156,728.33,151.67,764.15c-.23,2-.39,3.86-.48,5.66C150.72,779.18,152.35,786.13,157.25,788.65Z"/><path class="cls-3" d="M150.81,774.2c0,1.68,0,3.32.06,5,0,3.91.09,7.82.14,11.71q0,3,.1,6c0,.29,0,.56,0,.82,0,1.86,0,3.71.07,5.55,1.87,120.69,7.37,231,18.63,310.13v0l1.25,5.42,63,273.71,81.08-5.29s-2.95-216.72-20.79-266.18l.32-303.36,0-43.67L185.44,783l-6.81-1.72-4-1-6.67-1.68Z"/><path class="cls-4" d="M169.82,1113.43v0l1.25,5.42c1.26,0,2.52.07,3.76.07,26.39,0,48.55-10,49.72-10.52,1.66-.76,2.2-2.4,1.22-3.67a4.1,4.1,0,0,0-4.77-.94C220.61,1104,196.47,1114.82,169.82,1113.43Z"/><path class="cls-4" d="M299.18,1370.33l-.42,0c-1.87,0-3.37-1.19-3.36-2.64,1.89-182.72-27.79-255.13-28.09-255.84a2.08,2.08,0,0,1-.17-.85l5.93-289.82c0-1.45,1.57-2.6,3.44-2.57s3.36,1.21,3.33,2.65l-5.91,289.4c2.48,6.32,30.07,80.67,28.25,257.08C302.16,1369.09,300.86,1370.18,299.18,1370.33Z"/><path class="cls-4" d="M151.19,782.48a7.31,7.31,0,0,0,.75-.19,70,70,0,0,0,14.42-6.07q1.83-1,3.57-2.13a77.4,77.4,0,0,0,12-9.38c22.35-21.26,29-51.28,29.35-52.8a3,3,0,0,0-2.7-3.42,3.39,3.39,0,0,0-4,2.34c-.08.37-6.9,31.07-29.21,51.28a69,69,0,0,1-10.91,8.15c-.58.35-1.17.69-1.77,1a64.72,64.72,0,0,1-11,4.83C151.44,778.32,151.28,780.45,151.19,782.48Z"/><path class="cls-4" d="M266.53,805.06c-.08,1.15,1.12,2.14,2.66,2.21h0c1.56.06,2.88-.84,3-2,.49-7.88,1.1-15.95,1.75-24,.12-1.41.23-2.83.36-4.25,2.22-26.34,5-52.2,7.17-70.45.17-1.48.34-2.91.5-4.29l1.27-10.56-5.59-.7c-.37,3-.8,6.59-1.28,10.64-.16,1.38-.33,2.81-.5,4.28-2.11,18.1-4.91,43.73-7.13,69.91-.13,1.44-.25,2.9-.37,4.34C267.67,788.53,267,796.9,266.53,805.06Z"/><path class="cls-4" d="M258.48,790.86a81.08,81.08,0,0,0,9.87,3.27c1.75.47,3.64.89,5.57,1.22a46.11,46.11,0,0,0,5.35.61,22.31,22.31,0,0,0,9.47-1.29,10.32,10.32,0,0,0,6.43-7.48c2.05-9.13,6.36-46.84,9.27-73.51.18-1.64.35-3.24.52-4.79.46-4.27.87-8.15,1.22-11.44l-5.62-.61c-.35,3.31-.76,7.24-1.23,11.56-.17,1.55-.35,3.15-.52,4.8-2.91,26.6-7.2,64.25-9.19,73.1a5.4,5.4,0,0,1-3.41,4.13c-3,1.24-7.47,1-11.93.14-1.9-.36-3.79-.82-5.56-1.31a74.45,74.45,0,0,1-7.75-2.64,3.09,3.09,0,0,0-3.78,1.07A2.21,2.21,0,0,0,258.48,790.86Z"/><path class="cls-4" d="M415.16,732.8A103.64,103.64,0,0,0,431,760.53c6.52,8.14,15.23,16.24,26.42,21.42,1.29.6,2.62,1.16,4,1.68a58.91,58.91,0,0,0,11.77,3.14c-.78-2.07-1.54-4.06-2.27-6a49.85,49.85,0,0,1-6.44-2,54.69,54.69,0,0,1-5.86-2.65A69.33,69.33,0,0,1,437.2,758a101.7,101.7,0,0,1-15.3-26.6c-.51-1.42-2.42-2.28-4.27-1.89S414.67,731.38,415.16,732.8Z"/><path class="cls-2" d="M5.18,369.59c.22,1.46.45,2.92.7,4.36L6.07,375l.26,1.15.53,2.29.58,2.3c.2.77.37,1.51.65,2.33.51,1.6,1.05,3.2,1.62,4.78s1.29,3.25,2,4.88,1.43,3.23,2.39,4.89,1.86,3.28,2.85,4.9,2.21,3.22,3.38,4.79a73.75,73.75,0,0,0,17.28,16.31,80.29,80.29,0,0,0,19.7,9.49c1.59.5,3.25,1,4.79,1.42s3.09.76,4.65,1.11c3,.58,6,1.13,8.85,1.42s5.61.51,8.37.68,5.33.15,7.85.07,5-.19,7.47-.33,4.82-.39,7.1-.69c4.67-.54,9.11-1.27,13.44-2.11a231,231,0,0,0,24.74-6.32c4-1.25,7.87-2.58,11.77-4,1.95-.72,3.89-1.46,5.87-2.25l3-1.22,1.59-.68.84-.36,1.16-.53a45.42,45.42,0,0,0-40-81.58h0l-.09.06-.31.17-.74.4-1.68.87c-1.15.58-2.36,1.17-3.58,1.74-2.44,1.14-4.94,2.24-7.44,3.28a143.89,143.89,0,0,1-14.65,5.19c-2.34.68-4.62,1.28-6.72,1.73-1.1.26-2.07.41-3.09.62s-1.92.32-2.76.4a3.47,3.47,0,0,1-.45.06c-.57.08-1.09.12-1.61.18l-.36,0c-.48,0-1,.06-1.45.09,0-.15,0-.29,0-.45,0-.53-.1-1.09-.13-1.69-.07-1.37-.09-2.88,0-4.46a115.77,115.77,0,0,1,1.62-15.23,258,258,0,0,1,9-34.69c3.88-11.91,8.45-24,13.41-36S118,236,123.65,224s11.58-24,17.61-35.93l.17-.32a31.67,31.67,0,0,0-55.25-30.86c-7.35,11.93-14.67,23.92-21.68,36.2S50.56,217.76,44,230.57s-12.85,25.88-18.63,39.59a332.72,332.72,0,0,0-15.27,43.73,197.63,197.63,0,0,0-4.93,25.28A117.33,117.33,0,0,0,5.18,369.59Z"/><path class="cls-2" d="M128.74,337.83l.09,0h0A.37.37,0,0,0,128.74,337.83Z"/><path class="cls-3" d="M67,187s41.09,25.63,66.25,18.08c0,0,1.56,12.59-9.5,17.9,0,0-21.07,5.48-63.9-20.95C59.82,202.06,62.54,190.1,67,187Z"/><path class="cls-2" d="M143.76,176.68s-25.47,22.92-48.69,12.08C76.32,180,73.6,153.07,73.24,143c-.09-2.4,0-3.83,0-3.83a33.76,33.76,0,0,1-3-2.24c-4-3.33-10.66-10-9.48-17.31,1.69-10.42,20.38-3.48,20.38-3.48S79,103.34,84.8,100s16.72,3.79,16.72,3.79-21.58-52.88-13-56.14c13-4.9,32.4,51.42,32.85,52.7-.06-1.39-2.72-60.21,7.15-56.63,8.62,3.12,13.89,52.46,15.16,65.87.21,2.12.31,3.34.31,3.34s.7,0,1.89.13c5.62.48,22.11,2.92,24.48,14.64C173.28,141.81,143.76,176.68,143.76,176.68Z"/><path class="cls-8" d="M117.66,134.31a5.13,5.13,0,0,1-3.8,3.34c-5.11,1.3-11.89-1.93-17-5.11,1.75,4.62,2.51,9.61,1.32,13.07a6.15,6.15,0,0,1-4.36,4.22,11.71,11.71,0,0,1-5.3-.22c-5.06-1.15-11.27-4.31-15.3-6.57-.09-2.4,0-3.83,0-3.83a33.76,33.76,0,0,1-3-2.24,2,2,0,0,1,1,.31c6.24,3.91,17.62,9.75,21.6,8.72a2.26,2.26,0,0,0,1.6-1.68c1.31-3.8-1.1-12.15-5-17.17a2,2,0,0,1,2.83-2.72c3.75,3.12,14.76,10.87,20.54,9.39.84-.22,1-.59,1-.79.93-2.73-3.64-10.42-7-14.77a2,2,0,0,1,.34-2.77,2,2,0,0,1,2.78.35C111.64,117.92,119.61,128.56,117.66,134.31Z"/><path class="cls-8" d="M155,141.38a64.91,64.91,0,0,1-15.58-1.31c-4.08-.92-8.05-2.46-10.64-5a9.91,9.91,0,0,1-3-7.63c.37-10.49,11.43-15.71,18-17.89.21,2.12.31,3.34.31,3.34s.7,0,1.89.13c-5.52,1.7-15.94,6.06-16.24,14.56a6,6,0,0,0,1.88,4.67c5,4.93,18.47,5.43,23.25,5.2a2,2,0,0,1,.19,3.94Z"/><path class="cls-8" d="M110.49,176.63a2,2,0,0,1-.15-3.81c5.61-1.76,9.51-5,11.6-9.67,5.35-11.94-2.39-29.37-2.47-29.54a2,2,0,0,1,3.61-1.63c.35.78,8.54,19.24,2.47,32.79-2.57,5.73-7.29,9.71-14,11.82A1.91,1.91,0,0,1,110.49,176.63Z"/><path class="cls-9" d="M126,223.6c-27,4-39-5-66-21a106.37,106.37,0,0,0-9,14c-40,53-77.4,153.76-26,206,86,45,146,19,176.23-10.66,25.6-12.12,52-25.56,62.87-34.13,27.82-21.91,39.6-71.61-5.69-103.15,0,0-15.6-7-65.91,19.29-56.41,47-45.5,8.65-101.5,52.65,21.61-27,23.16-79.66,27-105C119.17,234.1,126,223.6,126,223.6Z"/><path class="cls-10" d="M74,375a2,2,0,0,0,2.8.06c5.74-5.52,10.16-12.58,13.4-19.1,1.33-2.7,2.46-5.29,3.42-7.65.27-.67.52-1.33.75-2-.57.08-1.09.12-1.61.18a2,2,0,0,0-1.7-.37l-.15.05c0-.53-.1-1.09-.13-1.69-2.94,7.84-8.41,19.68-16.73,27.66A2,2,0,0,0,74,375Z"/><path class="cls-10" d="M88.55,374a1.87,1.87,0,0,0,.62.1,2,2,0,0,0,1.88-1.36c.2-.59,4.66-14.23,2.52-24.45,0-.23-.09-.46-.15-.68A2,2,0,0,0,91,346.13l-.15.05a2,2,0,0,0-1.31,2.35,27.11,27.11,0,0,1,.6,7.4,65.75,65.75,0,0,1-2.87,15.55A2,2,0,0,0,88.55,374Z"/><path class="cls-9" d="M162.22,736.8c.08.06.14.14.22.21a154.84,154.84,0,0,0,19.41,15.21l.68.45q3.45,2.3,7.08,4.45,2.91,1.78,5.94,3.44c1,.6,2.12,1.18,3.19,1.75,2,1.08,4.09,2.15,6.2,3.19a278,278,0,0,0,55.54,20.17c1.84.48,3.68.92,5.56,1.34,1.34.32,2.7.62,4,.92,1.85.42,3.71.8,5.59,1.17,2.22.46,4.47.87,6.71,1.27,1.85.35,3.7.65,5.58,1,1.15.19,2.29.36,3.44.52q2.79.43,5.61.8a330,330,0,0,0,57.33,2.6c2.64-.12,5.31-.26,8-.45,4.06-.27,8.14-.62,12.2-1.07,2.61-.27,5.23-.59,7.84-1l1.24-.16.5-.07c2.15-.3,4.27-.62,6.4-1a281.11,281.11,0,0,0,34.12-7.7c1.11-.31,2.23-.65,3.34-1,2.28-.68,4.56-1.42,6.82-2.18q9.5-3.18,18.74-7.14c1.61-.67,3.22-1.39,4.81-2.09,1-.44,1.93-.87,2.89-1.32s2-1,3-1.47c.18-.08,12.6-5,12.77-5.08,43.64-15.3,20-36.57,9-65.63-4.14-45.37,4.69-89.28,6.7-109.16q1-10.15,1.69-20.32c1.21-18.45,1.6-37,1.42-55.8-.14-14.47-.62-29.11-1.31-44.06-.09-1.86-.17-3.72-.27-5.6q-.5-10.29-1.13-20.75c-.09-1.59-.19-3.19-.28-4.8,0-.36,0-.75-.07-1.13s0-.57,0-.86c-.33-5.46-.66-11-1-16.54q-.88-14.07-1.85-28.63c-.33-5.29-.68-10.63-1-16-2.15-34.05-9.38-60.87-21.45-79a69.69,69.69,0,0,0-10.05-12,56.07,56.07,0,0,0-8.41-6.58A52.46,52.46,0,0,0,428.63,269a154.79,154.79,0,0,1-18.56-4.1c-1-.28-2.06-.59-3.06-.9-3.17-1-6.13-2-8.92-3.1-3.24-1.24-6.2-2.53-8.89-3.8-.43-.19-.85-.4-1.26-.59-.74-.37-1.44-.7-2.14-1.07l-.09-.05c-1.9-1-3.67-1.93-5.28-2.83A118.33,118.33,0,0,1,370,246c-1.49-1.07-2.25-1.69-2.25-1.69h-79.7c-.64.91-1.26,1.78-1.91,2.63l-.13.17c-1,1.34-2.1,2.6-3.2,3.8a57.32,57.32,0,0,1-6.5,6,62.14,62.14,0,0,1-9.12,6c-1.31.73-2.63,1.4-4,2-1,.51-2.07,1-3.12,1.43s-2.17.91-3.28,1.34c-2.6,1-5.24,0-7.89.83,0,0-17.87,2-17.9,2-15,6-23,1-21,13-12-2-9.28,7.91-10.89,10h0a40.43,40.43,0,0,0-7.1,16.68,39.07,39.07,0,0,0-.69,6.36c-.59,17.65,6.93,47,10,95.24,1,15.66,1.51,33.33,1.13,53.25-.1,5.06-.24,10.26-.48,15.6-.05,1.59-.13,3.2-.2,4.81-.15,3.3-.34,6.64-.55,10.05v0c-.2,3.41-.44,6.88-.7,10.4-.48,6.57-1.08,13.36-1.77,20.3q-.9,9.15-2.07,18.79Q195.47,555,194,565.37c-1.16,8.06-19.64,99.23-23.95,111.23S119,697.6,162.22,736.8Z"/><path class="cls-10" d="M195.22,355.65c0,.32.81,12.2,1.53,28.58,0,.13,0,.27,0,.39.39,8.76.74,18.78.93,29,1.19-.56,2.37-1.11,3.57-1.69-.19-9.57-.53-18.9-.88-27.12v0c-.09-2.07-.19-4.05-.29-6-.62-13.06-1.24-22.29-1.33-23.44a1.75,1.75,0,0,0-1.3-1.57,1.48,1.48,0,0,0-.6-.07A1.75,1.75,0,0,0,195.22,355.65Z"/><path class="cls-7" d="M286.68,305.15A27.18,27.18,0,0,1,283,300c-10-18.14.42-45.64.53-45.92a3,3,0,0,0-5.57-2.15c-.47,1.23-11.52,30.4-.19,51a33,33,0,0,0,5.35,7.21C288.35,315.41,291.14,310,286.68,305.15Z"/><path class="cls-7" d="M385.5,248.65a3,3,0,0,0-3.94,1.52c-.27.61-23.28,51.68-56.06,63.15-4.77,1.67-2.73,7.34,2,5.71,35.12-12.15,58.39-63.82,59.56-66.45A3,3,0,0,0,385.5,248.65Z"/><path class="cls-10" d="M312.52,368.58c13.49,0,28-3.66,43-10.89,25.89-12.43,44.88-31.42,45.07-31.61a2,2,0,0,0,.09-2.66,1.63,1.63,0,0,0-2.44-.09c-.19.18-18.82,18.8-44.2,31-33.74,16.17-62.76,13.88-86.28-6.81a1.63,1.63,0,0,0-2.43.28,2,2,0,0,0,.26,2.64c13.55,11.92,29.13,18,46.31,18.18Z"/><path class="cls-10" d="M313.48,335.44c18.78,0,40.62-16.16,41.83-17.06a2,2,0,0,0,.44-2.61,1.64,1.64,0,0,0-2.4-.48c-.37.28-36.88,27.27-53.87,11.36a1.64,1.64,0,0,0-2.44.2,2,2,0,0,0,.18,2.65C301.81,333.8,307.49,335.44,313.48,335.44Z"/><path class="cls-10" d="M263.72,668.22a125,125,0,0,0,21.56-1.91c18.05-3.13,36.91-10.12,56.05-20.78a269.16,269.16,0,0,0,55.22-41.11,2,2,0,0,0,.07-2.65,1.63,1.63,0,0,0-2.44-.08,265.63,265.63,0,0,1-54.5,40.54c-29.5,16.4-73.7,32.17-116.79,14.17a1.7,1.7,0,0,0-2.24,1.08,1.93,1.93,0,0,0,1,2.42A108.21,108.21,0,0,0,263.72,668.22Z"/><path class="cls-2" d="M505.24,437.19l1,.76.75.55,1.4,1,2.66,1.86c1.76,1.21,3.5,2.37,5.24,3.49,3.49,2.26,7,4.42,10.6,6.51A231.26,231.26,0,0,0,549.62,463c4,1.78,8.22,3.47,12.64,5,2.17.8,4.51,1.52,6.78,2.25s4.69,1.38,7.22,2,5.07,1.14,7.66,1.66,5.39.9,8.32,1.18,5.9.48,9,.57c1.59,0,3.18,0,4.77-.05s3.33-.2,5-.33a80.42,80.42,0,0,0,21.32-4.89,74,74,0,0,0,20.46-12.09c1.48-1.28,3-2.59,4.36-3.92s2.59-2.75,3.85-4.15,2.32-2.81,3.42-4.24,2.19-2.91,3-4.31,1.78-2.86,2.63-4.31c.46-.74.79-1.43,1.16-2.13l1.06-2.11,1-2.12.51-1.06.43-1c.56-1.35,1.1-2.72,1.64-4.08a117,117,0,0,0,6.71-29.68,192.15,192.15,0,0,0,.8-25.75,334.89,334.89,0,0,0-5.22-46c-2.62-14.65-5.85-28.81-9.42-42.74s-7.52-27.58-11.68-41.08-8.61-26.84-13.13-40.1a31.67,31.67,0,0,0-60.74,17.74l.12.48c3.23,13,6.44,26,9.23,38.94s5.44,25.9,7.57,38.75,4,25.61,5.11,38.08a259.55,259.55,0,0,1,1.09,35.81,114.28,114.28,0,0,1-1.8,15.21c-.3,1.56-.65,3-1,4.35-.15.57-.32,1.11-.49,1.61,0,.15-.09.29-.14.43-.42-.12-.93-.29-1.39-.41l-.33-.11c-.5-.17-1-.32-1.54-.53-.14,0-.28-.1-.43-.16-.8-.26-1.72-.68-2.61-1s-1.85-.79-2.86-1.29c-2-.89-4.06-2-6.18-3.16a147.89,147.89,0,0,1-13.15-8.31c-2.2-1.55-4.39-3.18-6.52-4.84-1.06-.83-2.11-1.66-3.1-2.49l-1.44-1.21-.64-.55-.27-.25-.07-.08,0,0a45.43,45.43,0,0,0-57,70.72Z"/><path class="cls-2" d="M583.36,206.06s19.77,28,44.82,22.56c20.22-4.4,28.83-30.06,31.4-39.77.61-2.32.88-3.72.88-3.72s1.41-.52,3.41-1.52c4.68-2.36,12.6-7.4,13.06-14.79.67-10.54-19.1-7.91-19.1-7.91s4.94-12,0-16.64-17.14,0-17.14,0,32.73-46.79,25-51.88c-11.56-7.65-43,43-43.69,44.13.37-1.34,16-58.12,5.55-56.81-9.09,1.13-25.14,48.08-29.35,60.88-.67,2-1,3.19-1,3.19s-.69-.13-1.87-.29c-5.59-.77-22.22-2-27.12,8.86C562.28,165.53,583.36,206.06,583.36,206.06Z"/><path class="cls-8" d="M618.18,170.52a5.12,5.12,0,0,0,3,4.09c4.69,2.4,12,.75,17.69-1.22-2.73,4.12-4.57,8.81-4.18,12.45a6.18,6.18,0,0,0,3.32,5.08,11.74,11.74,0,0,0,5.22,1c5.19,0,11.94-1.71,16.38-3,.61-2.32.88-3.72.88-3.72s1.41-.52,3.41-1.52a2,2,0,0,0-1.1.07c-6.95,2.43-19.34,5.6-23,3.72a2.27,2.27,0,0,1-1.2-2c-.43-4,3.77-11.6,8.64-15.64a2,2,0,0,0-2.15-3.28c-4.35,2.21-16.8,7.34-22.11,4.61-.77-.39-.82-.79-.84-1-.31-2.86,5.85-9.36,10.11-12.84a2,2,0,1,0-2.51-3.06C627.68,155.86,617.55,164.48,618.18,170.52Z"/><path class="cls-8" d="M580.2,169.16a65.73,65.73,0,0,0,15.48,2.16c4.18,0,8.4-.62,11.48-2.54a9.85,9.85,0,0,0,4.67-6.76c2-10.31-7.67-17.85-13.59-21.43-.67,2-1,3.19-1,3.19s-.69-.13-1.87-.29c5,2.88,14.21,9.44,12.61,17.79a5.92,5.92,0,0,1-2.86,4.14c-6,3.71-19.22,1.21-23.82-.07a2,2,0,0,0-1.06,3.81Z"/><path class="cls-8" d="M615.82,213.38a2,2,0,0,0,1-3.69c-5.08-3-8.17-7-9.18-12-2.58-12.82,8.83-28.11,8.94-28.26a2,2,0,1,0-3.15-2.38c-.52.68-12.59,16.87-9.66,31.42,1.24,6.16,5,11.09,11.07,14.64A2,2,0,0,0,615.82,213.38Z"/><path class="cls-9" d="M448,271.6s31-9,65.94,33.94C523.82,313.91,586,365.6,600,386.6c-10.36-29.6-13-106.38-12-134,.36-9.71-5-35-5-35l69,5s3,13,15,31c48,135,13,316-171,176-23.95-16.31-48.42-27.38-74.55-54C401.08,346.64,396.89,292.35,448,271.6Z"/><path class="cls-10" d="M418.24,374.72c.87.75,7.92,6.74,18,15l4.63,3.77,0,0c15.23,12.31,35.51,28.19,52.54,39.62-.21-1.58-.43-3.16-.64-4.76-5.55-3.81-11.41-8.06-17.3-12.44-11.49-8.56-23.06-17.73-32.62-25.45l-.29-.23c-12.74-10.32-21.82-18-22.06-18.24a1.78,1.78,0,0,0-2.51.19,1.41,1.41,0,0,0-.31.54A1.74,1.74,0,0,0,418.24,374.72Z"/><path class="cls-10" d="M442.31,393.41a1.74,1.74,0,0,1-.76.13l-24.19-1.08a1.78,1.78,0,0,1,.16-3.56L441.71,390a1.79,1.79,0,0,1,.6,3.44Z"/><path class="cls-10" d="M597.56,386.84c.09.66.19,1.36.31,2.08.39,2.51.93,5.31,1.64,8.24,1.71,7.06,4.45,14.91,8.83,21.56a2,2,0,0,0,3.32-2.19c-5.62-8.52-8.39-19.48-9.75-27.63-.17-1.07-.33-2.09-.46-3-.15.57-.32,1.11-.49,1.61a.33.33,0,0,0-.13-.07,2,2,0,0,0-1.73,0C598.6,387.2,598.1,387.05,597.56,386.84Z"/><path class="cls-10" d="M594.9,412.32a2,2,0,0,0,2,1.8h.2a2,2,0,0,0,1.79-2.18,64.3,64.3,0,0,1,.65-15.77,26.61,26.61,0,0,1,2.21-7.11,2,2,0,0,0,.19-1.15,2,2,0,0,0-.95-1.44.33.33,0,0,0-.13-.07,2,2,0,0,0-2.68.89c-.1.21-.2.42-.28.64C593.5,397.41,594.84,411.7,594.9,412.32Z"/><path class="cls-9" d="M387.22,282.64s49.81-16.78,31.28-32-55.95,5.64-62.91,24S387.22,282.64,387.22,282.64Z"/><path class="cls-9" d="M390.64,268.81s35.69-33,6.83-36.33-49.66,27.41-43.05,43.66S390.64,268.81,390.64,268.81Z"/><path class="cls-9" d="M291,253.48s2-28.93-14.45-23-11.88,29.5-.47,37.18S291,253.48,291,253.48Z"/><path class="cls-9" d="M276.35,257.1s-21.46-19.5-27-3,15.77,27.61,28.88,23.41S276.35,257.1,276.35,257.1Z"/><path class="cls-2" d="M292,224.4l-3.8,20a62.33,62.33,0,0,0,6.12,6.31c30.75,27.47,73.12,8.79,73.12,8.79l13.2-69.32-78.07,30.15Z"/><path class="cls-3" d="M292,224.4l-3.23,17c44.19.57,64.76-23.67,64.76-23.67l-51,2.6Z"/><path class="cls-8" d="M283.69,132s-8.8-15.58-17.78-3.38-9.2,40.28,8.92,39.13Z"/><path class="cls-2" d="M262.62,176.75s-7.94,41.32,35.08,49.42c42.74,8.06,78.25-19.95,80.06-21.22l.05,0,2.13-8.6,11-44.62,5.9-23.86s13.72-42.35-26-58.12c-29-11.53-58.24-11.9-75.5,1.1-.55.42-1.1.85-1.62,1.31a37.73,37.73,0,0,0-12,18.66l-9.58,43-2.35,10.54Z"/><path class="cls-7" d="M327.2,162s-26.59,5-44.8-2c0,0,0,24.81,23.18,23.32C320.9,182.31,327.2,162,327.2,162Z"/><path class="cls-3" d="M357.57,116.39h0a9.89,9.89,0,0,1-13.64,2.51,55.85,55.85,0,0,0-9.12-5.05,9.08,9.08,0,0,1-4.65-12.36h0S350.53,103.46,357.57,116.39Z"/><path class="cls-3" d="M279.82,101.58h0a9.9,9.9,0,0,0,11.76,7.35,55.6,55.6,0,0,1,10.35-1.34,9.08,9.08,0,0,0,8.86-9.79h0S291.13,92.15,279.82,101.58Z"/><path class="cls-8" d="M327.24,149.83c-.57,3,5.16,6.63,12.8,8.08s14.31.2,14.89-2.81-5.16-6.63-12.81-8.08S327.81,146.82,327.24,149.83Z"/><path class="cls-8" d="M269.82,144.37c1.05.31,2.16.58,3.31.8,7.64,1.45,14.3.19,14.88-2.82s-5.16-6.63-12.8-8.08c-1-.2-2-.35-3-.44Z"/><path class="cls-3" d="M330.39,133.26c-.79,4.13.45,7.84,2.76,8.28s4.83-2.55,5.61-6.68-.45-7.84-2.76-8.28S331.18,129.13,330.39,133.26Z"/><path class="cls-3" d="M288.85,125.35c-.78,4.13.45,7.84,2.77,8.28s4.82-2.55,5.61-6.69-.45-7.84-2.76-8.28S289.64,121.22,288.85,125.35Z"/><path class="cls-3" d="M367.5,185.62c.1.49,3.14,14.15,10.26,19.33l.05,0,2.12-8.6S373.37,193.87,367.5,185.62Z"/><path class="cls-2" d="M380.53,158.35s20.76-19,29.54.7c7.24,16.28-18.76,50.15-36.06,33.55Z"/><path class="cls-3" d="M377.54,186.35a1.73,1.73,0,0,0,2-1.2,28.92,28.92,0,0,1,20.87-19.75,1.73,1.73,0,1,0-.66-3.4,32.39,32.39,0,0,0-23.52,22.14,1.73,1.73,0,0,0,1.15,2.16Z"/><path class="cls-3" d="M395.38,179.06a1.75,1.75,0,0,0,1.44-.38,1.73,1.73,0,0,0,.21-2.43c-.58-.69-5.76-6.65-11.12-6.32a1.73,1.73,0,0,0,.22,3.46c3.08-.19,7,3.61,8.25,5.09A1.71,1.71,0,0,0,395.38,179.06Z"/><path class="cls-3" d="M307,150.37a1.73,1.73,0,1,0,.65-3.4c-6.25-1.19-8.55-5.05-9.25-6.66,9.45-12.7,18.87-25.5,19-25.63a1.73,1.73,0,0,0-2.79-2.06c-.1.14-9.89,13.44-19.51,26.36a1.73,1.73,0,0,0-.29,1.46C294.87,140.77,296.93,148.45,307,150.37Z"/><path class="cls-3" d="M374,135.6s-20,43-36,43-24,17-24,17-2-7-16.5-10.5-20.5,2.5-20.5,2.5c5.39-12.12-4.15-22.2-9-35.14,0,0-15,18.14-15,38.14s9,38,9,38,4.57,8,28.29,12,55.71-9,62.71-17,32-84,32-84Z"/><path class="cls-3" d="M302.25,152.94s-5.38-10.77-19.38,0c-6.46,6.46-5.38,4.3-11.84,4.3C273.18,166.93,308.71,170.16,302.25,152.94Z"/><path class="cls-3" d="M302.43,155.26s8.61-11.9,25.63,3c7.65,8.64,6.53,5.93,15.07,6.93C338.94,176.33,291.49,174.63,302.43,155.26Z"/><path class="cls-10" d="M346,19.6s13,46-25,62S282.71,94.33,274.37,124C267.69,125.23,244,78.6,281,26.6,322-23.4,340,12.6,346,19.6Z"/><path class="cls-9" d="M292,21.6c-8,37,8,40,35,56s36,59,49,67,16.63,6.48,16.63,6.48,59.87-22,35.87-70S307-35.4,292,21.6Z"/><path class="cls-10" d="M302.94,52.74c11.58,14.78,37.77,22,39.22,22.41a2,2,0,0,0,2.33-1.26,1.65,1.65,0,0,0-1.1-2.19c-.45-.12-44.21-12.21-42.17-35.4a1.64,1.64,0,0,0-1.66-1.8,2,2,0,0,0-2,1.78C297,42.55,299.25,48,302.94,52.74Z"/><path class="cls-11" d="M427,109.7c-6.09,17.76-28.45,33.2-29.69,34.05a2,2,0,0,1-2.61-.43,1.65,1.65,0,0,1,.32-2.43c.38-.26,37.74-26,28.2-47.28a1.63,1.63,0,0,1,1-2.24,2,2,0,0,1,2.45,1C429.25,98.13,429,104,427,109.7Z"/></g></g></svg>