<svg xmlns="http://www.w3.org/2000/svg" viewBox="0 0 1120.9 968.38"><defs><style>.cls-1{fill:#ff8c62;}.cls-2{fill:#37202c;}.cls-3{fill:#ff6a4c;}.cls-4{fill:#fea82f;}.cls-5{fill:#3832b5;}.cls-6{fill:#fff;}.cls-7{fill:#ce1919;}.cls-8{fill:#fc4830;}.cls-9{fill:#8878ff;}</style></defs><g id="Layer_2" data-name="Layer 2"><g id="Layer_1-2" data-name="Layer 1"><path class="cls-1" d="M1110.91,800.68c-.38,2.52-.78,5.06-1.21,7.57l-.33,1.9-.45,2-.93,4-1,4c-.35,1.33-.64,2.63-1.12,4-.9,2.79-1.84,5.57-2.82,8.32s-2.25,5.65-3.47,8.48-2.49,5.62-4.17,8.5-3.23,5.7-4.94,8.5c-1.87,2.82-3.85,5.6-5.88,8.33a128.39,128.39,0,0,1-30,28.36,139.58,139.58,0,0,1-34.25,16.48c-2.74.87-5.63,1.8-8.31,2.47s-5.37,1.32-8.09,1.92c-5.18,1-10.48,2-15.37,2.47-5.08.66-9.75.9-14.55,1.2-4.58.12-9.27.25-13.64.12s-8.69-.33-13-.57c-4.13-.37-8.37-.69-12.34-1.21-8.1-.94-15.83-2.21-23.35-3.67a397.38,397.38,0,0,1-43-11c-6.87-2.16-13.66-4.47-20.44-6.94-3.38-1.25-6.77-2.54-10.21-3.91l-5.25-2.12L830,888.72l-1.47-.64-2-.91A78.94,78.94,0,0,1,896,745.38v0l0,0,.17.1.54.31,1.28.7,2.92,1.5c2,1,4.09,2,6.22,3,4.25,2,8.59,3.91,12.92,5.71a255.05,255.05,0,0,0,25.47,9c4.06,1.19,8,2.22,11.68,3,1.9.45,3.6.71,5.36,1.07s3.35.57,4.8.71a7,7,0,0,0,.78.11c1,.13,1.9.2,2.8.31a4.2,4.2,0,0,1,.62.07c.85,0,1.77.1,2.53.15,0-.26,0-.5.07-.78.08-.93.17-1.9.22-2.93.12-2.39.16-5,.07-7.76a199.17,199.17,0,0,0-2.82-26.48c-3.31-19.07-8.9-39.62-15.6-60.27s-14.69-41.64-23.29-62.59-18-41.88-27.74-62.76S884.91,506,874.42,485.2l-.29-.57a55,55,0,0,1,96-53.62c12.77,20.74,25.49,41.56,37.67,62.9s24.23,42.91,35.6,65.16,22.32,45,32.38,68.81,19.27,48.66,26.54,76a341.16,341.16,0,0,1,8.55,43.92C1112.74,763.55,1113.64,780.72,1110.91,800.68Z"/><path class="cls-1" d="M896.18,745.47l-.16-.05,0,0A.53.53,0,0,1,896.18,745.47Z"/><path class="cls-2" d="M1003.53,483.4S932.13,528,888.4,514.83c0,0-2.72,21.88,16.5,31.1,0,0,36.63,9.53,111.05-36.4C1016,509.53,1011.24,488.74,1003.53,483.4Z"/><path class="cls-1" d="M870.08,465.41s44.27,39.85,84.62,21c32.59-15.23,37.32-62,37.94-79.46.15-4.18.06-6.66.06-6.66a58.63,58.63,0,0,0,5.19-3.89c7-5.79,18.52-17.37,16.47-30.08-2.93-18.11-35.42-6.06-35.42-6.06s3.74-22.3-6.4-28.21c-10-5.8-29,6.59-29,6.59S981,246.77,966,241.09c-22.54-8.52-56.32,89.36-57.1,91.6.11-2.42,4.74-104.64-12.42-98.43-15,5.42-24.13,91.16-26.35,114.47-.36,3.7-.53,5.81-.53,5.81s-1.23,0-3.28.22c-9.78.84-38.44,5.09-42.56,25.45C818.77,404.82,870.08,465.41,870.08,465.41Z"/><path class="cls-3" d="M915.44,391.79a8.9,8.9,0,0,0,6.6,5.8c8.88,2.26,20.67-3.35,29.51-8.88-3,8-4.37,16.7-2.3,22.71a10.72,10.72,0,0,0,7.58,7.34,20.57,20.57,0,0,0,9.22-.38c8.79-2,19.57-7.49,26.59-11.42.15-4.18.06-6.66.06-6.66a58.63,58.63,0,0,0,5.19-3.89,3.42,3.42,0,0,0-1.83.54c-10.84,6.79-30.63,16.93-37.53,15.15-.9-.24-2-.78-2.8-2.92-2.27-6.6,1.93-21.12,8.63-29.84a3.43,3.43,0,0,0-4.91-4.73c-6.52,5.42-25.66,18.9-35.7,16.32-1.46-.38-1.69-1-1.81-1.37-1.62-4.74,6.32-18.11,12.2-25.66a3.44,3.44,0,1,0-5.43-4.21C925.9,363.3,912,381.8,915.44,391.79Z"/><path class="cls-3" d="M850.54,404.08a113,113,0,0,0,27.06-2.28c7.09-1.61,14-4.29,18.49-8.72a17.14,17.14,0,0,0,5.31-13.25c-.65-18.23-19.86-27.31-31.27-31.1-.36,3.7-.53,5.81-.53,5.81s-1.23,0-3.28.22c9.58,3,27.7,10.54,28.21,25.31a10.36,10.36,0,0,1-3.26,8.12c-8.66,8.56-32.11,9.42-40.4,9a3.43,3.43,0,1,0-.33,6.86Z"/><path class="cls-3" d="M927.9,465.34a3.46,3.46,0,0,0,2.52-2.33,3.42,3.42,0,0,0-2.25-4.3c-9.76-3.06-16.54-8.71-20.17-16.81-9.3-20.75,4.15-51,4.29-51.33a3.43,3.43,0,1,0-6.26-2.83c-.61,1.35-14.85,33.44-4.3,57,4.47,10,12.67,16.88,24.38,20.55A3.42,3.42,0,0,0,927.9,465.34Z"/><path class="cls-4" d="M905.86,556.8l117.46-50.21c143.78,266.34,155.09,444.92-148,415.18,0,0-132-18.38-134.1-19.37-44.5-21.08-145.09,3.89-164-11-48.35-38.08,14.88-200.88,93.57-255.71,0,0,27.11-12.13,114.56,33.53,16.44,8.6,152.81,77.69,177,93.83C971.32,727.18,905.86,556.8,905.86,556.8Z"/><path class="cls-5" d="M991.91,811.48a3.39,3.39,0,0,1-2.49,1.06,3.44,3.44,0,0,1-2.38-.95c-10-9.6-17.66-21.86-23.28-33.2-2.31-4.68-4.28-9.19-5.94-13.29-.47-1.17-.92-2.31-1.31-3.4,1,.14,1.9.21,2.8.31a3.49,3.49,0,0,1,3-.64,1.34,1.34,0,0,1,.26.09c.08-.94.17-1.9.22-2.94,5.12,13.62,14.62,34.2,29.09,48.07A3.47,3.47,0,0,1,991.91,811.48Z"/><path class="cls-5" d="M966.54,809.79a3.38,3.38,0,0,1-1.08.17,3.45,3.45,0,0,1-3.27-2.37c-.35-1-8.1-24.72-4.37-42.49.07-.39.15-.79.26-1.19a3.47,3.47,0,0,1,4.18-2.54,1.34,1.34,0,0,1,.26.09,3.42,3.42,0,0,1,2.28,4.07,47.42,47.42,0,0,0-1,12.86c.54,13.43,4.93,26.87,5,27A3.46,3.46,0,0,1,966.54,809.79Z"/><path class="cls-4" d="M671.44,678.89C658.68,614.8,603.1,610.36,548.64,593l-.19-.06c-5.71-1.85-11.41-3.83-17-6q-3.57-1.38-7.09-2.9c-2.27-1-4.53-2-6.74-3.07-2.88-1.38-5.76-2.84-8.57-4.41A128.28,128.28,0,0,1,464,536.14H291.75s-14.09,11.45-39,24.14c-1.5.78-3,1.53-4.6,2.3l-2.72,1.29c-5.83,2.75-12.23,5.54-19.21,8.21-6,2.32-12.44,4.57-19.29,6.7-2.17.66-4.36,1.33-6.62,2a335.37,335.37,0,0,1-40.11,8.85c-55.38,8.82-93.9,53.55-114.35,127.28H672C673.33,701.52,673.46,689,671.44,678.89ZM321.2,685.4c-13,6-28,4-38-6,10,10,25,12,38,6,14-7,27-19,27-36C348.2,666.4,335.2,678.4,321.2,685.4Zm119-34c18,14,40,42,66,26C480.2,693.4,458.2,665.4,440.2,651.4Z"/><path class="cls-6" d="M341,669.79C292.7,630.72,277.72,550,277.53,548.88a6.33,6.33,0,0,0-12.47,2.21,290.7,290.7,0,0,0,26.22,75.26c11.54,22.17,25.19,39.73,40.59,52.44A48.53,48.53,0,0,0,341,669.79Z"/><path class="cls-6" d="M488.32,556.42A6.33,6.33,0,0,0,475.76,558c.08.71,7.9,67.67-20.82,106.08,3.18,2.75,6.46,5.48,9.85,8C496.86,629.61,488.7,559.5,488.32,556.42Z"/><path class="cls-4" d="M233.42,716.86c.15-.85.31-1.69.44-2.5,15.23-93.66-74.1-116.55-74.1-116.55S87,589.15,45.65,643.55C31.72,661.88,16.31,689,2,716.86Z"/><path class="cls-4" d="M2,716.86c-8.28,280-6,250.64,323.36,250.64s309.45-36.84,298-251.08"/><path class="cls-4" d="M715.75,716.86c-10.2-22.41-6.85-57.06-16.82-72C660.92,588.12,587.51,609,587.51,609s-87.87,17-81.27,107.84Z"/><path class="cls-4" d="M529.74,570.3S591.9,512.9,541.63,507c-154.07,9.42-86.48,47.75-75,76.05S529.74,570.3,529.74,570.3Z"/><path class="cls-4" d="M546.33,610.8s83.72-12.18,45.58-45.45-98.32-9.54-104.83,20.32S546.33,610.8,546.33,610.8Z"/><path class="cls-4" d="M252.18,568.07s-35-77,13.61-62.92c138.33,68.51,61.16,77.58,39.56,99.19S252.18,568.07,252.18,568.07Z"/><path class="cls-4" d="M237.52,595.56s-83.73-12.19-45.59-45.46,98.33-9.53,104.84,20.32S237.52,595.56,237.52,595.56Z"/><path class="cls-1" d="M464.58,504.68v44A134.93,134.93,0,0,1,449,559.62c-76.46,45.92-158.93-10.93-158.93-10.93V396.05l153.7,95.66Z"/><path class="cls-2" d="M464.58,504.68v37.41c-94.14-16.69-128-76.53-128-76.53l107.24,26.15Z"/><path class="cls-3" d="M519.6,311.72s25-29.54,39.14,0S562,401.06,524,391.27Z"/><path class="cls-1" d="M546.27,415.32s.13,91-94.55,90.81c-94.09-.18-158.21-74.07-161.54-77.49l-.1-.09-1-19.13-5.35-99.29-2.86-53.07s-12-95.56,78.79-113C426,131.34,488.2,142.36,519.6,177q1.53,1.68,2.93,3.44c9.88,12.17,16.17,27,17.86,44.51l2.94,95.32.72,23.36Z"/><path class="cls-2" d="M432.35,305.45a4.05,4.05,0,0,1-3.94-3.15c-.15-.62-3.74-15.4-15.8-15.66h-.38c-12.4,0-19.38,13.62-19.45,13.76a4,4,0,0,1-7.25-3.6c.37-.76,9.23-18.26,26.68-18.26h.57c18.41.4,23.32,21.07,23.52,21.95a4.06,4.06,0,0,1-3.05,4.85A3.94,3.94,0,0,1,432.35,305.45Z"/><path class="cls-6" d="M393.72,358.08s53.94,26.57,97.1,22.52c0,0-14.95,53.1-63.61,36C395,405.32,393.72,358.08,393.72,358.08Z"/><path class="cls-2" d="M369.43,243.45h0A21.41,21.41,0,0,0,399,248.83a119.24,119.24,0,0,1,19.72-11,19.67,19.67,0,0,0,10-26.78h0S384.61,215.46,369.43,243.45Z"/><path class="cls-2" d="M540.14,248.61h0a21.41,21.41,0,0,1-28,10.88,118.23,118.23,0,0,0-21.44-7A19.67,19.67,0,0,1,475.86,228h0S519.93,224,540.14,248.61Z"/><ellipse class="cls-3" cx="389.36" cy="331.95" rx="30.49" ry="12"/><path class="cls-3" d="M544.06,343.6a72.72,72.72,0,0,1-7.35.35c-16.82,0-30.47-5.37-30.47-12s13.65-12,30.47-12c2.28,0,4.5.1,6.63.29Z"/><path class="cls-2" d="M509.61,295.48c0,9.1-4.13,16.48-9.22,16.48s-9.22-7.38-9.22-16.48S495.3,279,500.39,279,509.61,286.37,509.61,295.48Z"/><path class="cls-2" d="M319.82,391.71c-.43,1-12.42,28.8-29.64,36.94l-.1-.1-1-19.13S304,406.87,319.82,391.71Z"/><path class="cls-1" d="M303.14,328.5s-36.39-48.89-63-10.47c-22,31.65,19.57,114.15,63,85.88Z"/><path class="cls-2" d="M298.17,389.19a3.74,3.74,0,0,1-3.72-3.34c-4-37-35-49.89-36.35-50.42a3.75,3.75,0,0,1,2.78-7c1.48.6,36.47,15,41,56.57a3.76,3.76,0,0,1-3.32,4.13Z"/><path class="cls-2" d="M263.23,366.49a3.75,3.75,0,0,1-2.37-6.65c1.49-1.21,14.92-11.79,26.17-8.91a3.74,3.74,0,1,1-1.86,7.25c-6.47-1.65-16.33,4.83-19.59,7.47A3.66,3.66,0,0,1,263.23,366.49Z"/><path class="cls-2" d="M462.61,341.3a3.75,3.75,0,1,1,0-7.49c13.77,0,20.21-7.28,22.35-10.42C470,292.59,455.18,261.57,455,261.25a3.75,3.75,0,1,1,6.76-3.23c.15.32,15.56,32.55,30.78,63.9a3.74,3.74,0,0,1,0,3.22C492.29,325.8,484.8,341.3,462.61,341.3Z"/><path class="cls-2" d="M300.61,294s26.33,89.74,58.25,96S401,456.37,401,456.37s28.88-24.32,59.18-25.63S505.92,460,505.92,460c-6-26.29,23.81-92.65,38.56-116.57,0,0,10.8,84.44,3,124.35S506,531.43,506,531.43s-12.26,14.17-61.14,12.88-107.65-39.76-118.49-58.46-40.1-182.21-40.1-182.21Z"/><path class="cls-2" d="M461.07,350.24s22.49-21.86,47.67,16.65c10.35,21.44,9.55,15.22,25.44,20.77C520.56,409.65,430.37,387.07,461.07,350.24Z"/><path class="cls-2" d="M458.63,355.8s-11-36.69-65.67-14.63c-26.25,14.7-21.15,9-43,4.12C350.68,376.28,468.89,412.88,458.63,355.8Z"/><path class="cls-7" d="M405.54,56.44s-27.89,98.67,53.63,133c75,18,75,49,83,108,14.33,2.71,107-95,2.77-225.95C457-35.81,418.41,41.42,405.54,56.44Z"/><path class="cls-8" d="M531.2,22.4c30,68-37.08,116.67-95,151s-84.13,106-112,123.18-35.68,13.9-35.68,13.9S165.71,259.37,217.2,156.4,501.2-45.6,531.2,22.4Z"/><path class="cls-5" d="M503,99.53c-24.85,31.71-81,47.24-84.14,48.07a4.25,4.25,0,0,1-5-2.7,3.54,3.54,0,0,1,2.37-4.7c1-.25,94.82-26.19,90.46-75.93a3.49,3.49,0,0,1,3.55-3.85,4.26,4.26,0,0,1,4.23,3.8C515.63,77.67,510.9,89.42,503,99.53Z"/><path class="cls-9" d="M214.79,221.72c13.05,38.11,61,71.23,63.68,73a4.25,4.25,0,0,0,5.61-.91,3.53,3.53,0,0,0-.7-5.21c-.81-.56-80.95-55.89-60.49-101.44a3.5,3.5,0,0,0-2.09-4.81,4.27,4.27,0,0,0-5.25,2.21C210,196.91,210.63,209.57,214.79,221.72Z"/><path class="cls-5" d="M616.73,734.15c.29,3.05,2.46,27.44,4.88,62q.54,7.61,1.07,15.82c4.34,66.84,3.42,56,4.77,81.68-2.62-4.29-10.62,7.08-10.82,6.77,0-51.43.45-27-3.5-88.83a3.14,3.14,0,0,1,0-.68c-2.87-43.49-5.64-75-5.74-75.87a4.71,4.71,0,0,1,9.38-.87Z"/><path class="cls-5" d="M620.34,814.79a4.67,4.67,0,0,0,1.45-1.45l34.66-54a4.73,4.73,0,0,0-8-5.11l-34.66,54a4.73,4.73,0,0,0,6.51,6.56Z"/><path class="cls-5" d="M433.56,782c-26.28,0-54.47-7.14-83.8-21.21-50.45-24.21-87.45-61.22-87.82-61.59a3.88,3.88,0,0,1-.17-5.17,3.17,3.17,0,0,1,4.75-.19c.37.36,36.66,36.63,86.11,60.33,65.72,31.49,122.27,27,168.08-13.28a3.19,3.19,0,0,1,4.74.54,3.87,3.87,0,0,1-.5,5.14c-26.41,23.24-56.76,35.15-90.22,35.42Z"/><path class="cls-5" d="M431.69,717.46c-36.58,0-79.15-31.47-81.49-33.22a3.87,3.87,0,0,1-.86-5.09,3.2,3.2,0,0,1,4.68-.93c.72.53,71.84,53.11,105,22.13a3.17,3.17,0,0,1,4.74.38,3.87,3.87,0,0,1-.35,5.16C454.41,714.27,443.36,717.46,431.69,717.46Z"/></g></g></svg>