<svg xmlns="http://www.w3.org/2000/svg" viewBox="0 0 922.13 1566.47"><defs><style>.cls-1{fill:#edcfc7;}.cls-2{fill:#ff8c62;}.cls-3{fill:#fea82f;}.cls-4{fill:#ff6a4c;}.cls-5{fill:#3832b5;}.cls-6{fill:#37202c;}.cls-7{fill:#ff404c;}.cls-8{fill:#c5023a;}.cls-9{fill:#fff;}.cls-10{fill:#6a4d5d;}.cls-11{fill:#fc6c3f;}.cls-12{fill:#ce1919;}.cls-13{fill:#fc4830;}.cls-14{fill:#8878ff;}</style></defs><g id="Layer_2" data-name="Layer 2"><g id="Layer_1-2" data-name="Layer 1"><ellipse class="cls-1" cx="461.06" cy="1529.21" rx="461.06" ry="37.25"/><path class="cls-2" d="M840.05,301.5c-1.91,13.65-3.85,27.32-6.21,41S829,370,825.92,383.79s-6.45,27.68-10.64,41.71a330.12,330.12,0,0,1-15.77,42.73,192.61,192.61,0,0,1-12.08,22.26,115.79,115.79,0,0,1-19,23.1c-1.07,1-2.16,1.92-3.25,2.86l-.82.72-.92.7-1.85,1.41-1.87,1.38c-.63.46-1.23.91-1.95,1.36-1.39.89-2.8,1.77-4.22,2.62s-3,1.66-4.57,2.45-3.11,1.55-4.89,2.21-3.46,1.32-5.21,1.93-3.69,1.06-5.56,1.53A72.68,72.68,0,0,1,710,534.32a79,79,0,0,1-20.88-5.13c-1.51-.62-3.1-1.24-4.52-1.92s-2.83-1.36-4.23-2.07c-2.63-1.43-5.29-2.93-7.61-4.46s-4.57-3.11-6.77-4.72-4.14-3.22-6-4.85-3.67-3.27-5.46-4.92-3.41-3.32-5-5c-3.2-3.33-6.11-6.66-8.87-10A225.64,225.64,0,0,1,625.83,471c-2.23-3.42-4.36-6.87-6.42-10.39-1-1.76-2.06-3.55-3.06-5.39l-1.53-2.82-.78-1.5-.41-.82-.55-1.11A44.68,44.68,0,0,1,694.45,412v0l0,.11.13.33.3.76.74,1.71c.51,1.16,1.05,2.36,1.63,3.56,1.13,2.4,2.34,4.8,3.59,7.13a140.42,140.42,0,0,0,7.86,13.12c1.35,2,2.71,3.86,4,5.51.66.88,1.31,1.61,2,2.41s1.26,1.45,1.83,2l.31.34c.39.42.76.76,1.11,1.13l.26.25c.35.32.72.69,1,1l.31-.3c.37-.37.76-.78,1.15-1.21.92-1,1.88-2.14,2.83-3.37a114.21,114.21,0,0,0,8.3-12.57,252.22,252.22,0,0,0,14.88-31.93c4.51-11.46,8.59-23.47,12.37-35.71s7.24-24.76,10.49-37.39,6.22-25.44,9.12-38.28l.08-.36a31.15,31.15,0,0,1,61.24,11.17Z"/><path class="cls-3" d="M635.63,283.07s30,.63,37.94,55.89c37.56,48.51,32.18,105.7,46.06,104,0,0,45.74-105.69,55.5-139.5,6.57,57.64,43,42,61,34-49,280-175,273-269.37,20.31C560.4,323.53,581.53,278.68,635.63,283.07Z"/><path class="cls-2" d="M776.11,309c-2.68-5.27,1.49-14.65,1.93-22.44.58-10.28,4.61-25.52,9.15-33.51,6.81-12,28.79-46.26,40-48.81s-5.49,28.47-8.79,34.89a27.53,27.53,0,0,0-3.15,12s43.77-68.19,52.86-69.22-11.93,40.27-17.19,50.44c0,0,35.83-49.55,41.8-48.38,12,2.34-26.21,58.5-26.21,58.5s32.27-40.14,38.71-34.65c6.83,5.82-27.84,48.73-27.84,48.73s24.85-23.1,32.57-20.9-40.72,54.72-49.14,61.9-29.52,28.4-41.95,35.79C810.37,338.33,784.6,325.65,776.11,309Z"/><path class="cls-4" d="M870.2,275.05a2.28,2.28,0,0,0,.81-2.89c-11.71-24.44-37.56-31.66-38.65-32a2.27,2.27,0,1,0-1.18,4.38h0c.24.07,24.94,7,35.73,29.54a2.28,2.28,0,0,0,3,1.07A2.2,2.2,0,0,0,870.2,275.05Z"/><path class="cls-4" d="M821.72,305.57a2.28,2.28,0,0,0,1-2.33c-5.08-26.65,12.42-38.76,12.59-38.88a2.27,2.27,0,0,0-2.49-3.79l0,0c-.83.56-20.16,13.93-14.52,43.5a2.26,2.26,0,0,0,2.65,1.8A2.22,2.22,0,0,0,821.72,305.57Z"/><path class="cls-5" d="M716.12,474.4a2,2,0,0,1-1.71,2.17h-.23a2,2,0,0,1-1.94-1.73c-.91-7.78.17-15.91,1.79-22.87.68-2.88,1.44-5.57,2.2-8,.22-.67.43-1.32.64-1.94.39.42.76.76,1.11,1.13a1.94,1.94,0,0,1,1.52.79.67.67,0,0,1,.09.14c.37-.37.76-.78,1.15-1.21C718.08,450.73,714.81,463.13,716.12,474.4Z"/><path class="cls-5" d="M719.11,446.74A27.24,27.24,0,0,0,714,452a65.1,65.1,0,0,0-7.56,13.6,1.94,1.94,0,0,1-1.82,1.25,2,2,0,0,1-.71-.13,2,2,0,0,1-1.12-2.53c.22-.58,5.37-13.72,13.41-20.14l.54-.42a1.94,1.94,0,0,1,2.73.4.67.67,0,0,1,.09.14A1.94,1.94,0,0,1,719.11,446.74Z"/><path class="cls-6" d="M691.71,795.67c-24.08,12.81-79,23.24-134.48,28.19-71.6,6.38-144.33,3.68-153.74-14.67a71.12,71.12,0,0,1-2.91-6.5,1.18,1.18,0,0,0-.07-.2q-1-2.49-1.77-5.11c-1-3.12-1.79-6.36-2.5-9.68-.41-1.93-.78-3.89-1.1-5.86-5.05-30.39-.63-63.78-.63-63.78l271.65-45.42s26.8,61.77,31,98.15c.23,2,.39,3.92.48,5.75C698.14,786.06,696.53,793.11,691.71,795.67Z"/><polygon class="cls-2" points="690.78 1369.11 703.98 1430.62 761.97 1420.39 750.92 1362.26 690.78 1369.11"/><path class="cls-7" d="M916.14,1472.54l-203.91,50.59c-2.2-2.38-4-6.09-5.49-10.66-5.56-16.94-6.89-45.83-8.5-63.85-.18-2.11-.37-4.08-.57-5.84a63,63,0,0,0-1.15-7.24c-3.52-14.16,9.62-14.85,9.62-14.85,25.66,15.12,41.49-21,57.61-14.46,0,0,6.92,2.76,26.72,13.31s49.72,13.33,75.59,17.32c33.4,5.14,45.12,15.65,49,23.93C918,1467.36,916.14,1472.54,916.14,1472.54Z"/><path class="cls-8" d="M916.14,1472.54l-203.91,50.59c-2.2-2.38-4-6.09-5.49-10.66L915,1460.79C918,1467.36,916.14,1472.54,916.14,1472.54Z"/><path class="cls-9" d="M768.94,1414.14s1.43-9.81,10.23-9,11.3,14.37,11.3,14.37S788.62,1432.88,768.94,1414.14Z"/><path class="cls-9" d="M776.39,1454.85a3.46,3.46,0,0,1-4.19-2.53c-5-20.25,4.92-34.36,5.34-35a3.46,3.46,0,0,1,5.63,4c-.37.51-8.47,12.23-4.25,29.24A3.47,3.47,0,0,1,776.39,1454.85Z"/><path class="cls-9" d="M812.22,1417.93a3.48,3.48,0,0,1-2.44-.3c-5.21-2.72-17.91-.32-24.7,1.83a3.46,3.46,0,0,1-2.09-6.6c2.07-.66,20.57-6.3,30-1.36a3.47,3.47,0,0,1-.77,6.43Z"/><path class="cls-9" d="M781.18,1411.79c-.36-.22-1.18-.69-2.34-1.33-1.31-.72-3.07-1.64-5.13-2.62-.41-.2-.83-.39-1.26-.58a75.54,75.54,0,0,0-15.91-5.47,30.12,30.12,0,0,0-13-.18l-.26.07a14.71,14.71,0,0,0-9.42,7.1,10.69,10.69,0,0,0-.1,10.92c.1.2.23.4.35.59a15.53,15.53,0,0,0,6.57,5.37c4.61,2.14,10.76,3,17.6,2.24a131,131,0,0,0,15.21-2.45l1.35-.32a52.39,52.39,0,0,0,6.38-2c.45-.18.69-.3.73-.32l-3.11-6.59-.1-.19-.18.07,1.29-2.15Zm-19.35,8.13c-1.35.18-2.79.36-4.33.53-9.21,1-15.22-1.44-17.09-4.29a4.28,4.28,0,0,1-.32-.59,3.27,3.27,0,0,1,.32-3.07,7.32,7.32,0,0,1,4.81-3.57l.17,0a16.47,16.47,0,0,1,5-.36,38.63,38.63,0,0,1,8.64,1.64,81.15,81.15,0,0,1,10,3.77h0c2.52,1.13,4.78,2.27,6.53,3.24-.68.2-1.49.42-2.42.65A106.46,106.46,0,0,1,761.83,1419.92Z"/><path class="cls-9" d="M786.76,1418.26l-4.75-5.81c5.91-4.84,10.25-14.79,8.59-19.72-.4-1.2-1.3-2.59-4.69-2.71-2.35-.08-3.3.72-3.86,1.44-2.84,3.59-1.66,13.06-.25,18.18l-7.24,2c-.48-1.73-4.5-17.11,1.59-24.83,1.63-2.06,4.69-4.48,10-4.29,7.84.28,10.59,5,11.53,7.81C800.66,1399.1,794.31,1412.09,786.76,1418.26Z"/><path class="cls-8" d="M733,1518l-6,1.51c4.33-8.41,7.35-20.41,2.86-35.37-6-19.91-21.45-30.49-31.6-35.48-.18-2.11-.37-4.08-.57-5.84,10.77,4.67,29.79,16,37,39.87C738.92,1496.94,736.85,1508.91,733,1518Z"/><path class="cls-9" d="M790,1432.42a3.46,3.46,0,0,1-2.45-6.42l12-6.32a3.46,3.46,0,0,1,3.24,6.12l-12,6.32A2.86,2.86,0,0,1,790,1432.42Z"/><path class="cls-9" d="M804.57,1436.67a3.46,3.46,0,0,1-2.45-6.42l12-6.33a3.46,3.46,0,1,1,3.23,6.12l-11.95,6.33A3.78,3.78,0,0,1,804.57,1436.67Z"/><path class="cls-9" d="M819.08,1440.63a3.47,3.47,0,0,1-2.45-6.43l12-6.32a3.46,3.46,0,1,1,3.24,6.12l-12,6.32A3.26,3.26,0,0,1,819.08,1440.63Z"/><path class="cls-9" d="M834.6,1443.76a3.46,3.46,0,0,1-2.45-6.42l12-6.32a3.46,3.46,0,0,1,3.24,6.12l-12,6.32A3.05,3.05,0,0,1,834.6,1443.76Z"/><path class="cls-9" d="M851.05,1445.64a3.46,3.46,0,0,1-2.45-6.42l12-6.32a3.46,3.46,0,1,1,3.24,6.12l-12,6.32A3.78,3.78,0,0,1,851.05,1445.64Z"/><path class="cls-6" d="M759.56,1378.77l-79.55,7s-50.27-216.44-45.16-268.43L560.19,815l-10.74-43.51,107.64-7.62,6.16-2.75,3.62-1.62,6-2.68,15.48-6.91c.38,1.67.77,3.32,1.15,5q1.4,5.86,2.74,11.7.71,3,1.39,6c.07.28.13.55.19.82.45,1.85.86,3.7,1.29,5.54,27.77,120.59,49.49,231.36,58,311.94l0,1,.12,5.68Z"/><path class="cls-10" d="M753.31,1097.54c-15.42,3.86-34.18,4-36,4h-.1c-1.89,0-3.41-1.23-3.41-2.74s1.53-2.72,3.42-2.72h0c.6,0,21.2,0,36-4.18Z"/><path class="cls-10" d="M694.26,1363.22c-46.6-181.84-35.71-258.48-35.59-259.23a2,2,0,0,0,0-.87l-71.4-268a3.33,3.33,0,0,0-3.67-2.07h-.07c-1.9.21-3.18,1.66-2.79,3.15L652,1103.8c-.85,6.67-9.25,84.93,35.73,260.48a3.31,3.31,0,0,0,3.53,2.12l.41-.05C693.46,1366.06,694.62,1364.66,694.26,1363.22Z"/><path class="cls-10" d="M697.68,803.05a7.18,7.18,0,0,1-.75-.22A64.66,64.66,0,0,1,682.75,796c-1.2-.78-2.36-1.58-3.51-2.42a79.23,79.23,0,0,1-11.77-10.64c-22-24.11-28.56-58.17-28.87-59.89a3.33,3.33,0,0,1,6.55-1.22c.08.41,6.79,35.24,28.73,58.16a70.56,70.56,0,0,0,10.73,9.25l1.74,1.16a59.07,59.07,0,0,0,10.85,5.48C697.43,798.33,697.59,800.75,697.68,803.05Z"/><path class="cls-10" d="M584.24,812.34c.07,1.17-1.1,2.17-2.62,2.24h0c-1.53.06-2.83-.85-2.9-2-.49-8-1.08-16.2-1.73-24.39-.11-1.44-.22-2.88-.35-4.32-2.18-26.75-5-53-7.05-71.55-.17-1.5-.33-3-.49-4.35-.47-4.07-.89-7.68-1.25-10.74,1.84-.22,3.68-.46,5.5-.7.36,3,.78,6.69,1.25,10.8.17,1.4.33,2.86.5,4.35,2.07,18.38,4.83,44.42,7,71,.13,1.47.24,2.94.37,4.41C583.12,795.55,583.73,804.06,584.24,812.34Z"/><path class="cls-10" d="M592.15,812.55a72.85,72.85,0,0,1-9.7,3.71,56.41,56.41,0,0,1-5.49,1.39,40.77,40.77,0,0,1-5.25.68,19.12,19.12,0,0,1-9.32-1.46,11.32,11.32,0,0,1-6.32-8.48c-2-10.36-6.26-53.13-9.12-83.38-.18-1.86-.35-3.67-.51-5.44-.46-4.83-.86-9.24-1.2-13l5.52-.69c.35,3.76.75,8.21,1.22,13.12.17,1.75.33,3.56.51,5.43,2.86,30.18,7.08,72.89,9,82.92a5.94,5.94,0,0,0,3.35,4.69c2.93,1.4,7.35,1.11,11.73.15,1.87-.4,3.73-.93,5.47-1.49a65.29,65.29,0,0,0,7.62-3,2.81,2.81,0,0,1,3.72,1.21A2.64,2.64,0,0,1,592.15,812.55Z"/><polygon class="cls-2" points="132.02 1341.92 103.05 1388.65 155.46 1433.69 190.57 1383.24 132.02 1341.92"/><path class="cls-9" d="M165.28,1487.37a3.16,3.16,0,0,1-.73-2.14c.19-5.4-6.86-15-11.35-19.75a3.19,3.19,0,0,1,4.64-4.37c1.38,1.46,13.42,14.55,13.07,24.34a3.18,3.18,0,0,1-5.63,1.92Z"/><path class="cls-7" d="M238.86,1529.12H91.57s-23.73-36.94-36.71-64.91c-.66-1.38-1.27-2.75-1.85-4.09-4.56-10.36-7.26-19-6.19-23.5a19.55,19.55,0,0,1,2.55-5.65c6.45-10.22,22.41-21.67,32.88-28.49h0c1.53-1,3-1.89,4.2-2.68,3.43-2.13,17.18-15.3,17.18-15.3,17.09-2.91,37.57,41.17,37.57,41.17s25.62-2.44,25.27,16.61c-.12,6.67-16.09,26.65-16.09,26.65s42.08,9.41,56.31,17.59c20.08,11.56,27.78,23.41,30.65,31.66C239.66,1524.81,238.86,1529.12,238.86,1529.12Z"/><path class="cls-8" d="M80,1443.77a46.83,46.83,0,0,1-25.14,20.44c-.66-1.38-1.27-2.75-1.85-4.09,7.74-2.58,16.4-7.94,23.06-18.76,8.66-14,8.24-28.69,6.18-38.88h0c1.53-1,3-1.89,4.2-2.68C89,1410.81,90,1427.47,80,1443.77Z"/><path class="cls-9" d="M151.19,1450s8.7-2.72,11.52,4.91-7.43,15.09-7.43,15.09S143.49,1473.75,151.19,1450Z"/><path class="cls-9" d="M120.39,1472.35a3.18,3.18,0,0,1,.43-4.48c14.8-12.23,30.45-9.6,31.11-9.48a3.18,3.18,0,1,1-1.11,6.27c-.57-.09-13.51-2.15-25.94,8.12A3.19,3.19,0,0,1,120.39,1472.35Z"/><path class="cls-9" d="M144.44,1459.26a114.22,114.22,0,0,1-8.9-12.63c-5.38-8.68-6.65-17.52-3.3-23.07a9.84,9.84,0,0,1,9.43-4.79,13.54,13.54,0,0,1,9.65,5c.06.06.11.13.17.2,8.5,10.28,6.75,32.7,6.52,35.24l-4.64-.42.13.12-4.34,5.37A38.15,38.15,0,0,1,144.44,1459.26Zm1.73-30.91-.11-.13a6.66,6.66,0,0,0-4.86-2.56,3,3,0,0,0-3,1.46c-1.61,2.68-1.24,8.63,3.25,15.87a98.24,98.24,0,0,0,9.87,13.63C151.66,1449.39,151.32,1434.58,146.17,1428.35Z"/><path class="cls-9" d="M154.87,1466.38l2.93-6.25c6.36,3,16.34,2.62,19.77-.72.83-.81,1.63-2.11.38-5-.87-2-1.91-2.46-2.73-2.64-4.11-.92-11.49,3.82-15.18,7l-4.54-5.2c1.24-1.09,12.4-10.55,21.22-8.57a10.69,10.69,0,0,1,7.56,6.61c2.89,6.61.05,10.78-1.89,12.67C176.29,1470.3,163,1470.19,154.87,1466.38Z"/><path class="cls-9" d="M150.82,1474a3.18,3.18,0,0,1,.11-6.32l12.38-1.29a3.18,3.18,0,0,1,.66,6.33L151.59,1474A2.83,2.83,0,0,1,150.82,1474Z"/><path class="cls-9" d="M165.29,1478.87a3.18,3.18,0,0,1,.12-6.32l12.37-1.29a3.19,3.19,0,0,1,.66,6.34l-12.37,1.29A3.39,3.39,0,0,1,165.29,1478.87Z"/><path class="cls-9" d="M180.06,1483.52a3.18,3.18,0,0,1,.11-6.32l12.38-1.29a3.18,3.18,0,1,1,.66,6.33l-12.38,1.29A3.3,3.3,0,0,1,180.06,1483.52Z"/><path class="cls-8" d="M238.86,1529.12H91.57s-48.77-75.91-44.75-92.5a19.55,19.55,0,0,1,2.55-5.65c13,24.64,41.65,77.85,51.25,87.67l136.72-.47C239.66,1524.81,238.86,1529.12,238.86,1529.12Z"/><path class="cls-6" d="M548.42,813.52,438.86,1085.9l-.23.56-3.58,4.46L182.52,1404.47l-76.16-38.82S187,1225.06,220.77,1170.14s85.08-97.43,85.08-97.43c33.74-74.9,93.75-304.26,93.75-304.26Z"/><path class="cls-10" d="M438.86,1085.9l-.23.56-3.58,4.46a171,171,0,0,1-40.8-12c-1.64-.76-2.2-2.42-1.27-3.73a3.93,3.93,0,0,1,4.67-1A166.22,166.22,0,0,0,438.86,1085.9Z"/><path class="cls-10" d="M127.39,1371.5a4.1,4.1,0,0,1-1.54-.3c-1.69-.68-2.37-2.32-1.51-3.66.7-1.11,71-111.92,108.49-183.7,37.21-71.18,84.75-99.66,91.84-103.62C353.6,1029.44,407.2,815.16,407.75,813c.36-1.47,2.17-2.43,4-2.14s3.06,1.73,2.69,3.21c-2.22,8.91-54.79,219-84,269.13a3,3,0,0,1-1.23,1.13c-.5.27-51.54,27.82-90.12,101.62-37.61,72-108,183-108.7,184.06A3.62,3.62,0,0,1,127.39,1371.5Z"/><path class="cls-10" d="M408.4,807.25a47.87,47.87,0,0,1-12.16,9.81c-.41-2.43-.78-4.89-1.1-7.36a40.89,40.89,0,0,0,8.17-7C425,778.48,419.73,731.48,419.67,731a3.43,3.43,0,0,1,6.81-.8C426.72,732.25,432.18,780.78,408.4,807.25Z"/><path class="cls-3" d="M691.13,716.47c-5.71,5.33-24,20-31.16,24.79-.22.16-.44.3-.67.44-5,3.32-10.33,6.49-15.92,9.48-2,1.07-4,2.12-6.1,3.13a272.72,272.72,0,0,1-54.65,19.84q-2.7.71-5.45,1.32-7.92,1.86-16.08,3.31c-1.82.34-3.65.64-5.48.94a324.71,324.71,0,0,1-65.29,3.85c-2.62-.11-5.23-.25-7.85-.44Q472,782.46,461.56,781l-.5-.07q-3.15-.43-6.3-.95a278.39,278.39,0,0,1-33.56-7.57,249.9,249.9,0,0,1-28.42-10.16c-1.59-.65-3.15-1.36-4.72-2q-2.94-1.34-5.83-2.74l-.55-.25c-42.55.27-10.26-26.73-13.55-45.73-8-45.88-11.51-107.29-13.91-130.94q-1-10-1.66-20c-1.2-18.14-1.58-36.35-1.39-54.88.12-12.43.5-25,1.05-37.73.06-1.87.15-3.73.23-5.6,0-.14,0-.28,0-.42.08-1.69.16-3.39.25-5.1q.66-13.36,1.49-27.08c1.17-19.4,2.54-39.38,3.84-60.19,2.11-33.49,9.23-59.86,21.11-77.71A68.23,68.23,0,0,1,389,280a52.37,52.37,0,0,1,28.22-14,152.68,152.68,0,0,0,18.26-4c1-.29,2-.58,3-.9,3.12-.95,6.05-2,8.79-3,3.17-1.22,6.08-2.49,8.75-3.74l1.23-.58c.71-.36,1.41-.69,2.09-1.05a110.27,110.27,0,0,0,17.77-11h78.39c.61.9,1.24,1.76,1.86,2.59a1,1,0,0,1,.14.17A58.69,58.69,0,0,0,576,260.05c1.28.73,2.6,1.38,3.9,2,1,.5,2,1,3.07,1.41s2.15.89,3.23,1.32c2.57,1,5.15,1.89,7.76,2.74l.09,0c19,6.06,38.3,8.66,48.89,22.69a34.77,34.77,0,0,1,4.2,7.25,44.8,44.8,0,0,1,2.79,9.16,35.66,35.66,0,0,1,.69,6.25c.77,23-12.46,66.08-10.92,146q.13,7.47.47,15.34c.06,1.57.13,3.15.2,4.74.16,3.24.33,6.53.55,9.88v0c.21,3.35.43,6.77.69,10.23.47,6.46,1.05,13.14,1.74,20q.87,9,2,18.47c.78,6.46,1.64,13.09,2.63,19.89,3.86,27,12.54,66.89,21.66,112C671.15,676.57,721.13,665.47,691.13,716.47Z"/><path class="cls-9" d="M463.55,247.47a2.93,2.93,0,1,0-5.36,2.38c1.06,2.38,20.61,45.79,50.74,61.9,4.79,1.23,6.81.29,2.14-5.62C483,290.5,463.8,248,463.55,247.47Z"/><path class="cls-9" d="M565.46,249.2a2.94,2.94,0,0,0-5.48,2.11c.11.26,9.68,25.51,1.46,43.31,1.49,1.38-.31,5.85,4.63,3.86C576.48,278.32,565.92,250.39,565.46,249.2Z"/><path class="cls-5" d="M531.47,363.93c-13.28,0-27.51-3.6-42.32-10.71C463.69,341,445,322.32,444.82,322.13a2,2,0,0,1-.09-2.61,1.61,1.61,0,0,1,2.4-.1c.19.19,18.51,18.5,43.48,30.46,33.17,15.9,61.72,13.65,84.85-6.7a1.61,1.61,0,0,1,2.39.27,2,2,0,0,1-.25,2.6c-13.33,11.73-28.66,17.74-45.55,17.88Z"/><path class="cls-5" d="M530.52,331.34c-18.47,0-40-15.89-41.14-16.78a1.94,1.94,0,0,1-.44-2.56,1.63,1.63,0,0,1,2.37-.48c.36.27,36.26,26.82,53,11.18a1.61,1.61,0,0,1,2.4.19,2,2,0,0,1-.18,2.6C542,329.72,536.41,331.34,530.52,331.34Z"/><path class="cls-5" d="M579.45,658.64a122.84,122.84,0,0,1-21.2-1.88c-17.75-3.08-36.3-10-55.13-20.43a264.86,264.86,0,0,1-54.3-40.44,2,2,0,0,1-.08-2.61,1.62,1.62,0,0,1,2.41-.08,260.48,260.48,0,0,0,53.6,39.88c29,16.13,72.49,31.64,114.87,13.93a1.66,1.66,0,0,1,2.19,1.06,1.9,1.9,0,0,1-1,2.39A106.45,106.45,0,0,1,579.45,658.64Z"/><path class="cls-2" d="M477.27,708.24a32,32,0,0,1-39.95,17l-8.08-2.9-7.83-2.91q-7.82-2.92-15.54-5.95-15.5-6.06-30.84-12.55c-20.44-8.73-40.77-18-61-28.5-10.11-5.25-20.18-10.82-30.26-16.89a335,335,0,0,1-30.23-20.39c-5.07-3.89-10.15-8.07-15.25-12.85A130.18,130.18,0,0,1,223,605.34a91.64,91.64,0,0,1-7.47-11.6,77.11,77.11,0,0,1-3.45-7.16c-.5-1.13-1.16-3-1.71-4.56s-1-3.24-1.39-4.78a77,77,0,0,1-2.28-17,99.7,99.7,0,0,1,.69-14,141.08,141.08,0,0,1,4.7-22.54c2-6.76,4.17-13,6.52-19a357.94,357.94,0,0,1,15.32-33.38c10.87-21,22.71-40.47,35-59.41s25-37.23,38.18-55.19q9.85-13.47,20-26.69c3.38-4.42,6.78-8.81,10.24-13.2l5.21-6.6,2.65-3.32,2.81-3.46a47.49,47.49,0,0,1,73.79,59.81c-.41.51-.83,1-1.25,1.49l-.44.49-4.95,5.58L410,376.75q-5.1,5.89-10.16,11.88-10.11,12-20,24.15c-13.14,16.22-25.94,32.65-38.05,49.28-6,8.31-11.92,16.69-17.54,25.08s-11,16.79-16,25.16S298.86,529,295.2,537c-1.84,4-3.43,7.81-4.7,11.34-.88,2.44-1.58,4.75-2.07,6.67-.23.83-.4,1.58-.53,2.24s-.24,1.25-.31,1.65c0,.14,0,.27-.07.37a50.33,50.33,0,0,0,5.76,7.26,120.24,120.24,0,0,0,8.94,8.6,255.41,255.41,0,0,0,22.32,17.22c8,5.61,16.54,11,25.22,16.32,17.4,10.6,35.68,20.58,54.28,30.09q14,7.14,28.15,14,7.11,3.39,14.22,6.7l7.12,3.26,6.93,3.09.72.33A31.92,31.92,0,0,1,477.27,708.24Z"/><path class="cls-11" d="M441.31,680.46c4-3.55,11.21-6.09,18.1-7.5,9.08-1.86,23.28-1.84,31.29.27,12,3.17,46.9,14.44,51.68,23.59s-26,1.75-32.4.36a24.7,24.7,0,0,0-11.18,0s69.44,22.44,72.43,30.12-37.81-1.13-47.88-3.38c0,0,51.39,19.82,51.74,25.29.72,11-57-9.38-57-9.38s42.38,18.87,39.08,25.75c-3.5,7.28-48.84-13.05-48.84-13.05s25.83,16.33,25.69,23.56-57-22.89-65.21-28.57S437.33,728.36,428,719.23C421.71,713,428.73,691.69,441.31,680.46Z"/><path class="cls-6" d="M466.4,669.67s-8.15,35.68-28.27,57c-4.94.39-10.85-2.75-14.5-6.33,0,0,20.84-22.32,29.06-58.49A19.48,19.48,0,0,1,466.4,669.67Z"/><path class="cls-6" d="M440.13,690.47c-4.94,9.91-13,16-.25,23.06,12.25,6.94,13.31-3.15,18.25-13.06s12-18-.37-22.82C446.13,672.47,445.06,680.56,440.13,690.47Z"/><path class="cls-9" d="M442.39,708.5c7.12,3.55,10.19-1.91,13.74-9s6.24-13.24-.88-16.79-9.58,1.67-13.12,8.79S435.27,705,442.39,708.5Z"/><path class="cls-3" d="M415.06,274.57,348,286.4S228.13,393.47,192.81,543.23c8.47,66.39,68.38,131.86,231.32,177.24,0,0,3-45,28-65-50.11-42.15-101.83-79.6-159-101,34-48,143.16-193.53,148.86-208.31C460.88,297.13,415.06,274.57,415.06,274.57Z"/><path class="cls-5" d="M409.73,374.58c-.53,1-4.84,9-11.14,20.22l-2.9,5.12c-12.3,21.61-30.18,51.64-43.47,68,.06-1.87.15-3.73.23-5.6,0-.14,0-.28,0-.42,12.71-16.72,28.94-44.1,40.34-64.07a.94.94,0,0,1,.12-.22c8-14.07,13.57-24.41,13.71-24.69a1.75,1.75,0,1,1,3.09,1.64Z"/><path class="cls-5" d="M394.38,400.32a1.65,1.65,0,0,0,.75-.15l21.77-9.66a1.76,1.76,0,0,0-1.43-3.21L393.71,397a1.75,1.75,0,0,0,.67,3.36Z"/><path class="cls-5" d="M294.43,552c-.23.83-.4,1.58-.53,2.24s-.24,1.25-.31,1.65c-7.45-.26-22.39.07-33.91,5.48a1.9,1.9,0,0,1-.83.19,2,2,0,0,1-.84-3.73c8.54-4,18.54-5.41,26.5-5.8,2.51-.13,4.8-.15,6.79-.11C292.46,551.9,293.51,551.93,294.43,552Z"/><path class="cls-5" d="M290.63,555.79a1.93,1.93,0,0,1-1.22-.43C283,550.27,271.14,545,271,545a2,2,0,1,1,1.57-3.59c.51.22,12.45,5.49,19.26,10.9a2,2,0,0,1-1.22,3.49Z"/><path class="cls-5" d="M450.81,652.86c-1-.83-8.69-7.42-19.78-16.54L426,632.16c-21.53-17.51-52.22-41.53-72.47-53.18.86,1.92,1.76,3.83,2.64,5.75.07.14.14.29.2.43,19.82,12.25,47.74,34.17,67.66,50.34a.76.76,0,0,0,.22.18c14,11.42,24,19.93,24.25,20.16a1.81,1.81,0,0,0,2.66-.21A2,2,0,0,0,450.81,652.86Z"/><path class="cls-5" d="M637.93,389.79c.11,1.13.91,10.19,1.81,23,.14,1.89.26,3.85.4,5.88,1.61,24.81,3.19,59.73,1.1,80.71-1-1.59-1.92-3.2-2.88-4.8-.08-.12-.15-.24-.22-.36,1.42-21-.08-52.75-1.55-75.69a1.09,1.09,0,0,1,0-.25c-1.07-16.15-2.09-27.86-2.13-28.17a1.75,1.75,0,1,1,3.48-.33Z"/><path class="cls-5" d="M639.27,419.73a1.64,1.64,0,0,0,.54-.54l12.87-20a1.77,1.77,0,0,0-.53-2.43,1.75,1.75,0,0,0-2.43.53l-12.87,20a1.76,1.76,0,0,0,.53,2.42A1.73,1.73,0,0,0,639.27,419.73Z"/><path class="cls-3" d="M579.42,255.16s29.05-26.82,5.56-29.56-40.41,22.3-35,35.53S579.42,255.16,579.42,255.16Z"/><path class="cls-3" d="M587.17,274.08s39.12-5.69,21.3-21.24-45.94-4.45-49,9.5S587.17,274.08,587.17,274.08Z"/><path class="cls-3" d="M455.81,261.29s-37.4-47.06-7.53-35.57c52.85,14.75,51.21,37.52,47.49,42.75C485.62,282.73,455.81,261.29,455.81,261.29Z"/><path class="cls-3" d="M443.31,277.06s-53-6.86-28.88-25.56,62.28-5.36,66.4,11.42S443.31,277.06,443.31,277.06Z"/><path class="cls-2" d="M551.66,222.13l3.74,19.65a61.38,61.38,0,0,1-6,6.21c-30.25,27-71.91,8.64-71.91,8.64l-13-68.18,76.79,29.65Z"/><path class="cls-6" d="M551.66,222.13l3.18,16.7c-43.47.56-63.7-23.28-63.7-23.28l50.13,2.55Z"/><path class="cls-4" d="M559.82,131.26s8.65-15.32,17.48-3.33,9.06,39.62-8.77,38.49Z"/><path class="cls-2" d="M580.54,175.26s7.81,40.64-34.5,48.61c-42,7.92-77-19.62-78.74-20.87l-.06,0-2.08-8.46-10.84-43.89-5.8-23.46S435,85.5,474.11,70c28.55-11.33,57.28-11.7,74.24,1.09.55.41,1.09.84,1.6,1.28a37.16,37.16,0,0,1,11.77,18.36l9.42,42.33,2.31,10.37Z"/><path class="cls-9" d="M517,164s26.16,4.88,44.06-2c0,0,0,24.41-22.8,22.94C523.22,184,517,164,517,164Z"/><path class="cls-6" d="M487.15,115.89h0a9.74,9.74,0,0,0,13.42,2.48,54.44,54.44,0,0,1,9-5,8.94,8.94,0,0,0,4.57-12.16h0S494.08,103.18,487.15,115.89Z"/><path class="cls-6" d="M563.62,101.33h0a9.73,9.73,0,0,1-11.57,7.23,54.61,54.61,0,0,0-10.17-1.32,8.94,8.94,0,0,1-8.72-9.63h0S552.5,92.06,563.62,101.33Z"/><path class="cls-4" d="M517,148.78c.56,3-5.08,6.52-12.6,8s-14.07.19-14.64-2.77,5.08-6.52,12.6-7.95S516.42,145.82,517,148.78Z"/><path class="cls-4" d="M573.45,143.42a30.9,30.9,0,0,1-3.25.78c-7.51,1.43-14.07.19-14.63-2.77s5.08-6.52,12.59-8c1-.19,2-.34,3-.43Z"/><path class="cls-6" d="M513.89,132.49c.77,4.07-.45,7.71-2.72,8.15s-4.75-2.51-5.52-6.58.44-7.71,2.72-8.14S513.11,128.43,513.89,132.49Z"/><path class="cls-6" d="M554.74,124.71c.77,4.07-.44,7.71-2.72,8.15s-4.75-2.52-5.52-6.58.44-7.71,2.72-8.15S554,120.65,554.74,124.71Z"/><path class="cls-6" d="M477.39,184c-.11.48-3.09,13.91-10.09,19l-.05,0-2.09-8.46S471.62,192.1,477.39,184Z"/><path class="cls-2" d="M464.57,157.17s-20.42-18.74-29.06.69c-7.12,16,18.45,49.32,35.47,33Z"/><path class="cls-6" d="M467.51,184.7a1.71,1.71,0,0,1-1.95-1.17A28.42,28.42,0,0,0,445,164.1a1.7,1.7,0,1,1,.64-3.34,31.83,31.83,0,0,1,23.14,21.77,1.71,1.71,0,0,1-1.13,2.13Z"/><path class="cls-6" d="M450,177.53a1.69,1.69,0,0,1-1.62-2.76c.56-.67,5.66-6.54,10.93-6.21a1.7,1.7,0,0,1-.22,3.4c-3-.19-6.88,3.55-8.11,5A1.68,1.68,0,0,1,450,177.53Z"/><path class="cls-6" d="M536.88,149.32a1.7,1.7,0,1,1-.64-3.34c6.15-1.18,8.41-5,9.1-6.56-9.29-12.48-18.56-25.08-18.66-25.21a1.71,1.71,0,0,1,2.75-2c.09.14,9.72,13.22,19.18,25.93a1.7,1.7,0,0,1,.29,1.43C548.82,139.87,546.79,147.43,536.88,149.32Z"/><path class="cls-6" d="M458.13,138.47s25,49,41,49,28.59,13.14,28.59,13.14,2-7,16.5-10.5,20.5,2.5,20.5,2.5c-5.39-12.12,5.55-28.2,10.41-41.14,0,0,13.59,24.14,13.59,44.14s-9,38-9,38-4.57,8-28.28,12-55.72-9-62.72-17-36.59-84.14-36.59-84.14Z"/><path class="cls-12" d="M496,19.6s-13,46,25,62S559.31,94.33,567.65,124C574.33,125.23,598,78.6,561,26.6,520-23.4,502,12.6,496,19.6Z"/><path class="cls-13" d="M550,21.6c8,37-8,40-35,56s-36,59-49,67-16.63,6.48-16.63,6.48-59.87-22-35.87-70S535-35.4,550,21.6Z"/><path class="cls-5" d="M539.09,52.74c-11.59,14.78-37.78,22-39.23,22.41a2,2,0,0,1-2.33-1.26,1.65,1.65,0,0,1,1.11-2.19c.44-.12,44.2-12.21,42.16-35.4a1.65,1.65,0,0,1,1.66-1.8,2,2,0,0,1,2,1.78C545,42.55,542.78,48,539.09,52.74Z"/><path class="cls-14" d="M415,109.7c6.08,17.76,28.44,33.2,29.68,34.05a2,2,0,0,0,2.62-.43,1.65,1.65,0,0,0-.33-2.43c-.38-.26-37.74-26-28.19-47.28a1.63,1.63,0,0,0-1-2.24,2,2,0,0,0-2.45,1C412.77,98.13,413.06,104,415,109.7Z"/><path class="cls-6" d="M543,152.27s4-11.33,19.23-2.33c7.19,5.63,5.86,3.62,12.28,2.85C573.51,162.66,538.64,170.14,543,152.27Z"/><path class="cls-6" d="M543.08,154.59s-10-10.77-25.09,6.08c-6.55,9.5-5.76,6.67-14.13,8.69C509.37,179.91,556.27,172.51,543.08,154.59Z"/></g></g></svg>